<svg xmlns="http://www.w3.org/2000/svg" viewBox="0 0 547.97 541.62"><g id="Camada_2" data-name="Camada 2"><g id="Camada_1-2" data-name="Camada 1"><path d="M262.5,393.14l-2.14-.09.14.06Z"/><path d="M228,388.17l7.66.48C231.07,387.84,227.67,387.47,228,388.17Z"/><path d="M120.62,399.5l3.85.21C123.29,399.63,122,399.56,120.62,399.5Z"/><path d="M235.81,407.05l1.81-.26h-.06Z"/><path d="M72.08,396.89a13,13,0,0,1-2.82.27l6.89.19C75,397.19,72.62,397.08,72.08,396.89Z"/><path d="M60.31,397l6.21.26,2.74-.1Z"/><path d="M242,389l-.68,0,.74,0Z"/><path d="M40.59,395.86c-1.81,0-3.89-.08-6.22-.22,3.85.4,7.56.58,11.09.73l10.49.44c1.36-.22-2.87-.34-7.23-.47S39.68,396.06,40.59,395.86Z"/><path d="M266.52,389.71l-9.28-1.94c-.42.14,0,1.05-.37,1.88l.82.05A87.69,87.69,0,0,1,266.52,389.71Z"/><path d="M158.43,377.35c6.24.42,12.51.94,18.77,1.42,3.74-.28,8.64-.31,19,.39-10.07-.82,8.75-.22-2.36-1.46l2.33-.45c-6.39.22-11.47-.32-10.51-.07-2-.1-1.1,0,2.67.48L190,378c-6.93-.64-16-1.42-17.36-1.25,8.09.6,12,1.12,14.06,1.58l-9.44-.48c1.66.14,3.23.3,4.69.47C174.93,378,155.2,376.3,158.43,377.35Z"/><path d="M37.79,372.11a60.79,60.79,0,0,1-6.48-1,8.62,8.62,0,0,1,1.23,1.06C34,372.18,35.79,372.16,37.79,372.11Z"/><path d="M29,372.32c1.34.17,2.71.3,4.16.36-.23-.18-.43-.35-.62-.53C29.53,372.11,27.92,372,29,372.32Z"/><path d="M25.84,369.43c-.27-.1-.49-.21-.72-.31C25,369.19,25.1,369.29,25.84,369.43Z"/><path d="M43.87,396.51c-2.1,0-4.22.09-6.38.09,2.58.23,5.07.37,7.48.5C47.4,396.82,47.76,396.62,43.87,396.51Z"/><path d="M130.33,375.39l47,2.43c-12.56-1.13-29.82-1.62-37.54-2.63C131.52,374.68,129.07,374.82,130.33,375.39Z"/><path d="M19.28,393.08a62.92,62.92,0,0,0,9.14,2.51c2.55.5,4.62.78,6.34,1h2.73A75.64,75.64,0,0,1,19.28,393.08Z"/><polygon points="124.68 399.72 124.47 399.71 124.57 399.71 124.68 399.72"/><path d="M33.16,372.68c3.24.15,6.73.07,10.48-.1l6.56.38a17.64,17.64,0,0,0,3.6.34c13-.48,10.29-.1,8,.38,2.48.16,4,.35,2.59.63-2.57-.13-4.59-.27-6.4-.41-4.22.06-7.85.14-12,.31.18.1.16.2-.42.28a41.9,41.9,0,0,1-9-.48A7.93,7.93,0,0,1,33.16,372.68Zm12.43,1.37a7.32,7.32,0,0,1,1.67,0c4-.26,3.64-.44,4.27-.64l-1.32-.06C43.53,373.44,44.76,373.75,45.59,374.05Z"/><path d="M54.9,372.06a46.69,46.69,0,0,0-7.42-.26c-3.22.06-6.69.23-9.69.31,1.87.19,3.82.34,5.85.47Z"/><path d="M23.83,368.48c.43.21.85.45,1.29.64C25.38,368.91,27,368.9,23.83,368.48Z"/><path d="M26.33,369.51l-.49-.08a32.61,32.61,0,0,0,5.47,1.66C30.46,370.5,29.05,370.09,26.33,369.51Z"/><path d="M46.15,397.16l5.35.28a6.45,6.45,0,0,1-1.66-.37C48.09,397.08,47,397.12,46.15,397.16Z"/><path d="M51.5,397.44c.82.12,1.93.23,3.34.35l1.3-.11Z"/><path d="M54.8,396.93l5.51.07L56,396.81C55.72,396.85,55.36,396.89,54.8,396.93Z"/><path d="M53.38,397.93,58,398l-3.12-.22Z"/><path d="M43.27,397.26c1.08,0,1.69,0,2.88-.1L45,397.1Z"/><path d="M14.77,364.16a4.23,4.23,0,0,0,2.06.29A16.2,16.2,0,0,1,14.77,364.16Z"/><path d="M87.18,400l-32.75-1.05c14.59.47-11.88.17,4.66.81-.66-.78,12,.39,23.41.15C82.11,400.2,96.12,400.27,87.18,400Z"/><path d="M34.76,396.59A66.81,66.81,0,0,1,16.28,394a44.44,44.44,0,0,1-16-8.43L0,385.36a45.9,45.9,0,0,0,10.64,8c-.44-.34.43,0,2,.56.79.3,1.79.6,2.87,1s2.18.64,3.33.91c4.62,1.18,9.27,1.64,9.56,1.81a111,111,0,0,0,14.84-.31C41.92,397.22,39.91,397.18,34.76,396.59Z"/><path d="M16.83,364.45c.44,0,.9,0,1.37,0s.9,0,1.35-.07a3.7,3.7,0,0,0-1.19-.07l-.76.06Z"/><path d="M72.07,396.73c-.16.06-.12.11,0,.16S72.19,396.79,72.07,396.73Z"/><path d="M119,396.62l1.82.1c.76,0,1.7,0,2.92,0,9.52,0-.56-.31.87-.41-2.83-.19-6.15-.42-8.8-.52-2.93-.41-3.88-.72-6.62-1l-20-.22c-2.52,0-5.19,0-7.89-.09l-2.72,0,31,1.64h.09C117.38,396.1,116.67,396.43,119,396.62Z"/><path d="M133.07,396.35l-1.92,0,2.22.3C134,396.55,134,396.45,133.07,396.35Z"/><path d="M130.36,396.33c-3.74,0-5.34,0-5.8,0C128.62,396.62,131.68,396.79,130.36,396.33Z"/><path d="M130.36,396.33h.79l-1.3-.16Z"/><path d="M119,396.62l-9.44-.5c-5.6.8-51.63-1.55-65.69-.24,28-.63,23.71,1.07,47,1.36-.26-.37,3.61-.51,9.37-.56-12.78.41,20.2,1.78,18.8.93-1.14-.38-7.73.12-9.4-.23.73-.25-.81-.61,4.69-.61a109.39,109.39,0,0,0,11.13.2l-4.67-.25C120,396.69,119.41,396.66,119,396.62Z"/><path d="M139.81,397.73l-1.26,0a2.38,2.38,0,0,1,.49.25c2.86.2,4.59.18,6.15.21l1.84-.05Z"/><path d="M76.79,397.58l3.58-.09-4.22-.14C76.65,397.41,76.93,397.49,76.79,397.58Z"/><path d="M132.91,397.36l-4.51,0c4,.14,7.22.25,10.15.31l-.13-.05Z"/><path d="M82.51,398.44s0,0,0,0l1.35.07,19.07.33-36.41-1.54c-3.13.09-7,.19-10.38.42l8.51.45Z"/><path d="M133.37,396.63c-1.17.16-4.41.28-7.93.34l7.47.39,4.18-.07C136.2,397.09,135,396.87,133.37,396.63Z"/><path d="M27.42,377.21a3.84,3.84,0,0,0,1.06.15Z"/><path d="M50.36,378c-8.88.3-12.86.31-14.07.32s.49.2,4,.3,9,0,15,0h18.4a66.54,66.54,0,0,0,9.62.55l-13.59-.85L55,377.75c1.59,0,3.17,0,4.71,0l-3.11-.2c-2.22.05-4.36.12-6.28.24-2.14-.09-6.86-.25-11.53-.51s-9.35-.81-12.39-1.21c.4.13.8.27,1.21.38,4,.63,7.61.93,11.21,1.18S46.13,378,50.36,378Z"/><path d="M56.63,377.57l-12.05-.75a110.82,110.82,0,0,1-11.15-1.16A40.81,40.81,0,0,1,24,373,22.42,22.42,0,0,1,17,368.3a.13.13,0,0,1,.13-.07c.26.2.56.36.83.53a21.7,21.7,0,0,0,3.88,2.82c.23.19.39.27.42.24a4.49,4.49,0,0,1-.42-.24,23.57,23.57,0,0,1-2-1.73,34.28,34.28,0,0,0,4.68,2,44.39,44.39,0,0,0,5.75,1.56,60.48,60.48,0,0,0,8,1c3.19.24,7.1.31,11.91.36,1.14.42-2.08.42-5.62.4s-7.22-.14-7.86.23a20.16,20.16,0,0,0,4.31.24c2.55,0,5.91-.06,8.6-.12,5.34-.11,7.72-.2-4.08.16.88.15,4.7.15,4.69.36,24.43-.23,32.05.11,60.94,1.92-19.6-1.85,7.4.12,14.12.17,15.49.63-23.49-.94-4.78.71-.76.51-15.84-1.14-18.72-1.26-1.34.27,4.41.56,4.63.89,11.26.89,10.18.34,23.41,1.46-7.42-1.64,7.94.65.12-1.26,10.79.74,25.26,3.27,9.29,1.49.87.23,4.67.53,4.64.74,8,.56,12.14.7,14.08.56-.11-.21-5.72-.56-9.34-.87,4.27-.06,17.26.86,18.8.51,13.55,1.18-7.21-.24-4.75.28,14.39,1.29,9.06.06,23.44,1.45-6.57,0,10.73,1.45,23.87,3l-14.86,0-5.23-.57c1.66-.06,1.67-.19-2.88-.43h-.17a4.7,4.7,0,0,1-.93-.25c-13.64-1-16.14-1-23.34-2.08-6.2-.15-1.11,1,9.23,2-1.33-.88,4.55-.11,10,.2-6.81-.19-9.23-.16-12.08-.1l-5.05-.32c-.22-.2-5.92-.5-11.22-.69l-70.2-4.34c.42-.05.41-.14-.29-.3l-13.3-.55-10-.61c11.36.14,20.53,1,18.66.15C74.7,377.7,65,377.41,56.63,377.57Zm45.09,2.19c-1.36-.52,6.33-.09,9.38,0-3.62-.34-9.21-.64-9.32-.81,8.14.42,14.51,1.05,18.65,1.47C114.72,378.33,86,378.57,101.72,379.76Zm-9.3-1.05c.22-.28-2.18-.56-4.65-.84,7.35.31,16.22.75,14.07.21-6.45-.28-10.27-.56-14-.84C89.59,378,75.47,377.77,92.42,378.71Z"/><path d="M27.42,377.21c-.42-.07-.91-.22-1.48-.38C25.44,376.82,25.55,376.91,27.42,377.21Z"/><path d="M36.55,384.08a91.48,91.48,0,0,1-11.92-.39,38.36,38.36,0,0,1-5.4-1.69,31.69,31.69,0,0,0,4,.64c1.18.13,2.38.21,4.05.29a64.67,64.67,0,0,1-12.87-3.26c-.59-.35-1.17-.73-1.76-1.11.29.28.54.51.73.71l1,.4a34.82,34.82,0,0,0,4.8,2.33A28.83,28.83,0,0,1,15,380.71a29.38,29.38,0,0,1-6.22-3.25c.56.17,1.46.55,2.66,1a13.63,13.63,0,0,1-2.3-2.72,28.08,28.08,0,0,1-3.84-4.36l0,0,.19.17a8.73,8.73,0,0,0,3.79,1.68,16.05,16.05,0,0,1,3.42.91,30.79,30.79,0,0,0,3.87,1.63,31.11,31.11,0,0,0,6.15,3.33,43.85,43.85,0,0,0,7,2.15,104.25,104.25,0,0,0,15.07,2L76,385.56l-17.33,0c-4.66-.12-9.47-.2-14.64-.24a109.47,109.47,0,0,1-16.84-1.09c.77-.2,5.65.47,10.84.62s10.69.23,12.51.33c7.94-.44,4.88-.55-.4-.6-2.63,0-5.82,0-8.44-.09A34.53,34.53,0,0,1,36.55,384.08ZM11.1,377.41l-.8-.64a16.69,16.69,0,0,0,1.88,2l.52.22A9.45,9.45,0,0,1,11.1,377.41Z"/><path d="M29.11,391.09a14.45,14.45,0,0,1-3.54-.33c1.34.3,2.51.51,3.56.68,1.26.11,2.5.19,3.74.24C31.62,391.51,30.37,391.31,29.11,391.09Z"/><path d="M35.88,392c.11,0-.31-.16-1.08-.29l-1.93-.06C33.88,391.81,34.88,391.93,35.88,392Z"/><path d="M15.56,375l1,.79.27.08C16.42,375.62,16,375.31,15.56,375Z"/><path d="M29.13,391.44a60.81,60.81,0,0,1-8-1.18c-1.12-.24-2.24-.53-3.38-.83s-2.32-.7-3.46-1.13a40.53,40.53,0,0,1-6.77-3.22,41.9,41.9,0,0,0,9.45,5,54.81,54.81,0,0,0,9.69,2.63,112.24,112.24,0,0,0,18.16,1.36l33.76.38-21.17-1.12-10.58-.57c-3.53-.18-7.18-.37-10.92-.76C35.69,392.1,33.81,392.16,29.13,391.44Z"/><path d="M214.16,387.32l2.17.13a6.43,6.43,0,0,1,2.31-.09,2.61,2.61,0,0,0,.92.29l2.91.18a30.09,30.09,0,0,0-3.62-.77l-3.64-.18C208.71,386.6,212.24,387,214.16,387.32Z"/><path d="M219.56,387.65l-3.23-.2c-.85.27-.91.77-11.89,0,13.35,1.47,8.22-.11,23.29,2-9.07-.83-3.34.41,4.38,1.66-1.46-.65,5.71-.87,15,.51l1.44-.23-3.53-.82c-.61,0-1.26,0-2-.08a10.89,10.89,0,0,1,1.46,0c-1.7-.38-3.46-.75-5.15-1.09-.51.33-1.51.53-11.37-1.15,0,0,0,0,0,0l-5.51-.34a2.43,2.43,0,0,1,.76.36C221.27,388,220.19,387.78,219.56,387.65Z"/><path d="M14.36,365.7a8.49,8.49,0,0,0,1,1.33c1.39,1.63,2.87,3.64,4.55,5.28s3.41,2.84,4.92,3a7.85,7.85,0,0,0-1.63-1.1,30.81,30.81,0,0,1-3-2.05,17.52,17.52,0,0,1-2.45-2.38c-.56-.73-.86-1.27-.74-1.47-.27-.28-.56-.56-.79-.85a11.24,11.24,0,0,1-.7-.88C15.11,366.3,14.76,366,14.36,365.7Z"/><path d="M260.17,386l-.47.14c1.62.18,3.19.4,4.64.7l-1,.27c1.47.44,2.53.81,2.33,1l-2.57-.91-2.23.56c-1.31-.26-2.44-.46-3.43-.64-.58.27-1.14.54-1.69.77.84.25.83.34-.4.16a5.89,5.89,0,0,1-2.71.5c-7.47-.08-8.86-1.38-4.32-1.38l3.54.21,0,0c-1.44-.14-2.63-.19-3.57-.19-7.34-.38-11.84-.27-16.07-.14.23.05.48.11.79.16l-1.91-.12c-3.59.11-7.13.21-12.23,0-2.35-.39-5.44-.78-8.8-1.18l14.32,0c-2-.56-4.8-1.26-14.61-2.14,13.3,1-15.67-2.3-18.66-2.32-9.66-.92-1-1.1-14-2.06,3.52-.27,17.85,1.88,18.68,2.27,17.63,1,32.57,1.42,46.95,2.72,5,.94,10.49,1.14,15.47,1.61Zm-28.26-.07,12.68,0c-.63-.09-1.34-.2-2.14-.34.8,0,1.89.17,3.05.34h1.71c-2.91-.56-6.18-1.12-9.29-1.53C238.21,384.52,233.68,385.2,231.91,385.94Z"/><path d="M241.28,389l-5.64-.35c1.18.21,2.43.45,3.72.7C239.65,389.17,239.78,388.94,241.28,389Z"/><path d="M251,389.6l-9-.56A51.41,51.41,0,0,0,251,389.6Z"/><path d="M268.18,386h-.37l-5.31-.29a7,7,0,0,0-2.33.29l8,0Z"/><polygon points="274.52 381.43 274.85 381.58 274.88 381.6 273.15 380.79 274.52 381.43"/><polygon points="274.92 381.61 274.89 381.6 274.88 381.6 274.93 381.62 274.92 381.61"/><polygon points="11.84 363.4 11.87 363.44 11.81 363.38 11.82 363.38 11.82 363.39 11.84 363.4"/><path d="M145.19,398.16c-4.23.13-7.41.28-7.36.51-26.92-.06-35.5-1.7-57.46-1.18,10.25.35,19.36.85,30,1.44l52.07.91c-1.92-.18-4.37-.33-9.36-.59A34.07,34.07,0,0,0,145.19,398.16Z"/><path d="M114.88,399.31l9.69.4c2,.14,3.65.31,4.94.53,3.23-.47,11.65.21,21.36.95,4.64-.13,9.67-.32,15.23-.58.12-.53.17.53,0,.63-.37.29-5.27.35-10,.35,5.33.39,10.82.74,15.91.9,14.69,1.55-7.36-.1-18.26-.91l-2.27,0c2.19.28,2.62.39,2.36.44h3c.78.21-1.47.33-4.67.42a6.7,6.7,0,0,0,.87.24c4.2.15,8.45.35,9.46.17,6.85.53-.49.15,0,.42l-14.15-.74c-4.66.1-9.6.18-10.31.36-1.59-.22-5.47-.73-9.42-1.06-14.52.14-9.09.21-23.57-.05l-14.09-.52c14.14-.15,24.83.17,37.29.21L96,399.78l-9.83,0c2-.39-3.24-.8-4.7-.45-5.09-.06-3.18-.42-9.37-.44a.39.39,0,0,1,.14,0c-6-.3-10.75-.55-14.31-.79l6.69.12,10.67.56,4.35.09c1.76-.06,2.79-.17,2.84-.34l1.35,0C94.35,399,105.76,399.06,114.88,399.31Zm33.49,1.88.49.06h.26Z"/><path d="M256.74,389.89c.05-.08.09-.16.13-.24-2-.1-3.89-.06-5.86,0l4.13.25C255.64,389.85,256.17,389.87,256.74,389.89Z"/><path d="M258.44,393.08l2.06,0a9.45,9.45,0,0,0,1.66.59l2.79.65h.2l0,0,.78.19.82.2-.57.29.22,0h-.26l-.07,0-.17,0-1.55-.08-.55.41c-2.21-.06-4.32-.13-6.65-.24-.9,0-1.82,0-2.8,0l7.42,1.6,2.36,2.26,1.24.27.63.13.16,0,.07,0h0l-9.65-.71a21.49,21.49,0,0,0,3.32.45c1.33.12,3,.26,4.89.4l1,.08c-18.27-.59-35.64-1.61-46.81-1.84-14.46-1.17,13.49.69,9.44,0-16.68-1.16-15.31-.34-23.8-.61l1.6.28c.85,0,1.84.07,3.13.08,5.61.35,2.55.25-2.12.08,1.39.2,3.1.42,5.47.65-2.74-.73,2-.84,14,1.2,1.92,0-6.71-1.71.16-.61,2.17.52,4.28,1,6.3,1.48l.48.12,2.77-.28-2.7.29.65.15,1-.13.85-.08.11,0h.1l0,.4-.75.05-.34,0,.34.08.77-.09-.32,0-.43.05.39.09-1,0-.38,0,.36,0-5.55-.1-6.95.74h.79c-.08.16-.55.27-1.29.35l1.32.07a42.49,42.49,0,0,1-6.39.37l3.81.42c6,0,13.48-.18,12.18.35-1.92.29-4.42.48-7.29.61,3.86.82-.39.19,4,1.4,5,1.05,3.73.41,4.49.32l.68.16h0l-.34.92-.08,0-.14,0-1.15-.29c-3.06-.83-6.3-1.54-9.8-2.2l-.89-.16c-20.89.51-54.93-2-36.74-1.81l-9.8-.89a25.32,25.32,0,0,0-3.85-.08l-.58-.05h-.78l.39-.05c-3.5-.34-2.76-.51-3.73-.73-4-.29-4.49-.2-4.76-.09-5-.61-2.88-.58,1.77-.27l-2.06-.21,18.3.32c-1.52-.17-2.47-.31-2.32-.39l-4.41-.23c-.16.1-.69.13-4.5-.24l-12-.64.44,0c-.15,0-.63,0-1.37-.1l-9.47-.5,3.17-.08-2.63-.26c-2.55,0-5,0-7.76,0l-1.39-.08a13.51,13.51,0,0,0-1.33-.36c1.67-.05,3.09-.11,4.26-.17-5.28-.58-10.1-1.19-11.42-1.57-10.12-1-2.21.54-4.8.61a66.26,66.26,0,0,0-10.52-1.27l-5.47-.07c-1.6-.16-3.79-.33-7.33-.51-2.8.13-7.4.27-12.65.29l-7.89-.09c-4.22-.11-8.49-.34-12.32-.75.43-.29,33.75,1,18.78.21-9-.28-18.34-.67-26.95-1.05l-12.28-.56c-3.83-.17-7.48-.33-10.81-.59,1.33,0,2.66,0,4,0-2.76-.08-4-.21-3.93-.3a21.38,21.38,0,0,1,3.58-.25l-6.2-.09c-2,0-3.64-.09-4,0,.74.09,1.52.21,2.32.29l2.41.25,1.88.16-2.89,0-2-.32a8.94,8.94,0,0,1-1.8-.3l-.21,0L28,390.75c.75.17,1.15.29,1.11.34-.9-.18-1.8-.35-2.71-.56-2.41-.36-5-.84-7.63-1.49a62.27,62.27,0,0,1-7.87-2.53,39.87,39.87,0,0,0,10.37,2.61c-.73-.21-1.47-.43-2.26-.7s-1.92-.72-2.9-1.14a65.61,65.61,0,0,1-8.89-3.77c-1.93-1.53,1.72.6,5.12,1.79a27.88,27.88,0,0,1-5.94-4.81,38.24,38.24,0,0,0,7.17,5.23,21.71,21.71,0,0,0,3.3.88c1.29.43,2.13.67,2.65.81a3.45,3.45,0,0,1,.76.26,6.62,6.62,0,0,1-1.13-.11c-.49-.06-.77-.05.15.28a22.59,22.59,0,0,0,2.39.7,42.86,42.86,0,0,0,4.9.9c7.34,1-1.92-.53.06-.63.45.07.85.16,1.22.21a52.89,52.89,0,0,1-8.07-2.19,30,30,0,0,1-7.61-4.05l-.67-.54a33.58,33.58,0,0,1-6.93-5.94A26.43,26.43,0,0,0,7.34,378a17,17,0,0,1-1.6-2.56l.39-.11v0l.1.16.2.32a17.13,17.13,0,0,0,1.73,2.44l.24.27,0,0A49.76,49.76,0,0,0,14.28,383a36.44,36.44,0,0,0,6.06,3.19,51.79,51.79,0,0,0,8.5,2.1c.73-.16,0-.56-2-1.13s-5.23-1.3-9.52-2.83a45.4,45.4,0,0,0,8.21,1.92l3.7.51c1.71.22,2.68.58,7.26,1-.18-.28,1.88-.34,4.16-.47l-.78-.05a67.24,67.24,0,0,1-13.06-1.27A24,24,0,0,1,21,384c-2.66-1.06-4.37-2.2-3.33-1.92.91.44,1.92.85,3,1.24a37.14,37.14,0,0,1,4,.34,76.84,76.84,0,0,0,17,1.76c5.67.06,11.36,0,17.05.07,10.25.26,19.85.69,31.28,1.06l13.2,1A53.94,53.94,0,0,0,97.4,387c1.7,0,4.83,0,7.06,0-5.24-.11-10-.25-14.55-.4l-14-1,25,.06c-8.11.14,19.45,1,15.38,1.56l-4.37-.06a121.88,121.88,0,0,0,14.12,1.49,40.45,40.45,0,0,1-6-.16l-3.6.08,7.06.52,6.84.18c-2,0-3.46,0-4.54,0l14.08,1c4.54.07-1.22-.56-4.85-1.09,13,.61,28,1.06,47.82,2.29-.39-.13-1.71-.31,1.77-.58l14.38.62c-.79.17-8.76-.18-14.37-.2,2.33.14,7.55.41,13.61.82l-6.94-.11,9.26.67c-5-.11-1.52.66-14.08-.25.9-.12,4.71.07,4.71-.15-9.9-.6-11.12-.25-16.32-.53l-2.3,0c4.33.34,5.53.69,4.5,1l-10.4-.48,52.43,3.85-8.52-.1a117.83,117.83,0,0,1,13.14,1.41c6.31.27,8.77.11,9.45-.24l1.59.08-2.52-.19-.62,0c-1.29,0-2.26,0-3-.05a3,3,0,0,1-1.38-.33l-8.18-.6,11,.12,1.68-.07a36.71,36.71,0,0,1-4.08-.46c-4.09-1.58-18.21-2.79-29.43-3.55l19.85.32c1,.18-4.28,0,1.29.44,5.59-.19,4.12-.39,18.77.78a8.89,8.89,0,0,1,2.34-.77c2.49.25,4.88.51,7,.79v-.18c4.69.29,9.39.49,14.09.71l1.13.05-1-.27Zm-114-1.5-4.72-.13c.54.13.54.2.22.24Zm-14.2.28s0-.06.09-.1l.75,0a3.14,3.14,0,0,0-.5-.19C124.29,391.84,125.75,391.91,130.21,391.86Zm-27.09.16-1.21,0,.58.09A1.92,1.92,0,0,0,103.12,392Zm56.66-.08-5.45-.17c1.06.07,1.21.13-2.71.41C155.3,392.1,157.93,392,159.78,391.94ZM47.14,389.68c1.93.2,5.45.36,9.57.5,6.8,0,8.92.19,22,.47v.28a21.92,21.92,0,0,1,4.34.43c2.33-.08,4.51-.12,7.41-.06.11-.15-1.43-.39-2.65-.7,4.28.35,7.94.56,11.39.72,2.14,0,5.64.18,8.18.37l1.89.09c4-.11,9.15-.15,20.54-.25l-9.66-.67Zm95.42,5.52c1.28.2,2.13.35,2.74.48l1.8-.06c.35.63,10.76.6,18.81.77,1.38-.43-6.35-.33-9.41-.49,3.78-.09,6.57-.12,8.79-.13l-2.26-.34Zm23.38,2-7.35.27,2.42.22C164.16,397.61,166.25,397.45,165.94,397.24Zm25.13-1.16-3.39-.37-19.9-.22,2.14.31c3.19,0,5.29.09,10.05-.11-.35.37,1.06.64,4.7.87-8.59.25-15.88-.2-23.42.53,6.69,0,7.92.23,14.08.28-5.73-.62,7.27-.32,12.27-.37-1.13-.17-1.89-.33-1.23-.47l.11,0c.44-.12,1.47-.28-1.81-.62Zm-23.59-4.46-3.83-.07c0-.05-.12-.11-.37-.18a.37.37,0,0,0,0,.18h.37c0,.05-.16.09-.4.13,0,0-.07.07-.16.1C166.87,392,167.32,391.8,167.48,391.62Zm.32-.45c-1.35-.05-2.28-.06-3-.05l4.85.23Zm-60.09-3.28,6.05.44c.76-.06,1.57-.15,2.47-.29-1.36-.16-2.88-.33-4.69-.5C107,387.51,106.83,387.67,107.71,387.89Zm-86.34,1.25.22,0c.61,0,.45-.09-.25-.32l-3.47-1C19,388.32,20.19,388.75,21.37,389.14Zm28.35,2.4,2.27,0c1.79-.08,3.92-.11,6.57-.11l1.39,0c-.38-.19-6.26-.25-8.91-.33C42.1,391.37,51.59,391.28,49.72,391.54Zm93,5.49c5.2-.38,3.27-1-5-1.11,2,0,3.28,0,4.41-.09l-6.77-.71L128,395c1.31.27,3.44.65,6.6,1.17C138.47,396.66,140.92,396.9,142.7,397Zm12,.89,4-.11-1.79-.24-4.37.12Zm34.46,2.39.33.05,27.23,1.45,5.21-.05c-5.4-.05-9.62-.36-7.92-.69,4.14.06,8.33.1,9.33.25,2.4-.08,4.22-.19,5.81-.31Zm22.38-1.4,1.09.09Zm24.11-2.65,2.94,0h-.06l-.12,0-.25,0-.51-.09-1.06-.18c-2.87-.53-6.16-1.09-8.6-1.32,1.15.23,5.17,1.33,4.12,1.47h.08l2.42-.11.61,0,.3,0h.07Zm29-1.5-.07.05.74.12Z"/><path d="M114.88,399.31c2,.05,4,.11,5.74.19l-10.29-.57-7.4-.13Z"/><path d="M257.94,393l2.42.1c-1.1-.5-2.2-1.15-3.27-1.72-.95.2-2.3.39-3.7.55C255.15,392.26,256.6,392.6,257.94,393Z"/><path d="M257.13,389.91l-.39,0-.05.06,5.36.33a29.16,29.16,0,0,0-4.36-.58C257.27,389.75,257.08,389.82,257.13,389.91Z"/><path d="M253,389.94c.42.06.84.13,1.3.23a7.64,7.64,0,0,1,1,.33l.88-.09a1.68,1.68,0,0,0,.49-.46l-1.55-.1C254.35,389.85,253.65,389.89,253,389.94Z"/><path d="M257.09,391.33c1.49-.32,2-.66,0-1l-.91.08a2.91,2.91,0,0,1-.5.25C256.16,390.86,256.62,391.08,257.09,391.33Z"/><path d="M239.49,392.77l1,.11.33-.08Z"/><path d="M252.41,391a8.36,8.36,0,0,0,3.29-.36l-.38-.16c-1.06.1-2.23.24-3.45.4A1.78,1.78,0,0,1,252.41,391Z"/><path d="M250,391.17l1.91-.27c-.66-.08-1.83-.18-3.13-.26A2.69,2.69,0,0,0,250,391.17Z"/><path d="M248.65,390.41c1.5-.15,2.79-.36,4.34-.47C250.49,389.57,248.7,389.92,248.65,390.41Z"/><path d="M248.65,390.41c-.53,0-1.09.09-1.7.12l1.79.11A.3.3,0,0,1,248.65,390.41Z"/><path d="M106.24,381.92c-4.35,0-38.18-.57-18.63-.25-3-.37-10.67-.68-9.27-1-4.35.08-7,.27-9.31.48-5.44-.13-3.91-.45-4.64-.71a74.92,74.92,0,0,1-9.31-.15c-5.72.16-9.54.39-9.27.75l-3.3,0c4.13.32,8.32.68,12.8,1.2,4.38-.05,7.1-.48,9.38-.06,11.26.26-2.6-1,14.1-.4-3.65.12-5.06.39-4.71.76,16.3-.05,27.39.5,36.89.13C107.81,382.38,105.56,382.11,106.24,381.92Z"/><path d="M195.53,386.22l-2.9-.23,2.55.29S195.32,386.22,195.53,386.22Z"/><path d="M102.24,385.6l-1.3,0h1.53Z"/><path d="M192.63,386h-.14l-.36,0Z"/><path d="M244.51,390.44l.52.12q1,0,1.92,0C246.06,390.49,245.21,390.45,244.51,390.44Z"/><path d="M13.75,361.92a1,1,0,0,0,0,.25l0,0A.92.92,0,0,1,13.75,361.92Z"/><path d="M14.07,365.14a6.8,6.8,0,0,1-.86-.58l0,.12c.33.36.75.69,1.12,1a5.36,5.36,0,0,1-.26-.54Z"/><path d="M16.42,367.13c-.32-.35-.56-.71-.83-1.06a1.31,1.31,0,0,1-.11-.12l-.58-.31a9.07,9.07,0,0,0,.64.93A9.46,9.46,0,0,0,16.42,367.13Z"/><path d="M13.08,364.05a1.65,1.65,0,0,0-.05.38l.18.13A2.9,2.9,0,0,1,13.08,364.05Z"/><polygon points="12.89 364.33 13.03 364.47 13.03 364.43 12.89 364.33"/><path d="M190.2,385.84l1.93.12-1.55-.12Z"/><polygon points="14.28 362.54 13.84 362.23 13.8 362.2 13.8 362.2 14.28 362.54"/><path d="M13.8,362.2l0,0,.08.51A5.81,5.81,0,0,0,15.48,366l0,0A11.68,11.68,0,0,1,13.8,362.2Z"/><polygon points="13.73 362.15 13.76 362.17 13.76 362.17 13.73 362.15"/><path d="M13.39,362v.16a6.71,6.71,0,0,0,.71,3,8.06,8.06,0,0,0,.8.48A10.33,10.33,0,0,1,13.39,362Z"/><path d="M251.42,392.09l-.86.09q1.42.26,2.88.57l.49,0Z"/><path d="M254.75,393l3.69.06-.5-.13-4-.18Z"/><path d="M182.32,385.2l8.26.64h.74c-1.58-.19-2.86-.37-3.78-.53C185.72,385.3,183.61,385.27,182.32,385.2Z"/><path d="M254.65,393l-1.21-.27-5.83-.31,2.95-.26c-1.17-.22-2.32-.41-3.44-.57-2.37.38-4.62.8-6.28,1.19Z"/><path d="M253.39,391.88l-2.65-.54c-.3,0-.55-.11-.78-.17l-1.4.21,2.86.71Z"/><path d="M17.12,367.42a9.43,9.43,0,0,0,1.79.4c.31,0,.37,0,.23-.11s-1.41-.6-2.75-1.33l-.87-.4.07.09A14,14,0,0,0,17.12,367.42Z"/><path d="M16.42,367.13a9.38,9.38,0,0,0,.74.83,10.51,10.51,0,0,0,.83.8c.64.4,1.28.76,1.92,1.09-.81-.74-1.61-1.56-2.35-2.11l-.44-.32-.49-.17Z"/><path d="M195.53,386.22l14.92,1.19c5.72.29,5.19.14,3.71-.09l-11.74-.73,2.12.22C203.49,386.88,197.07,386.17,195.53,386.22Z"/><path d="M192.49,386l9.93.61-7.23-.74h-3.87Z"/><path d="M254.75,393h-.1l.36.08Z"/><polygon points="185.72 384.8 185.95 384.81 185.95 384.8 185.72 384.8"/><path d="M13,364.55a4,4,0,0,0,.35.69s0-.13-.13-.56l-.21-.21Z"/><path d="M169.81,384.58c-2.41,0-5.13.11-11.09.06.21-.28-2.21-.54-4.71-.8,4.74.18,5.63.35,9.45.57,1,0,1.36-.09,1.3-.15l-11.22-.69c-5-.18-9.62-.25-8.94-.05,6.11.2,5.93.78,0,.64-2.48-.65-22.65-1.08-32.9-1.51l-.71,0c5.16.48,12.74,1,13.76,1.4.58-.35,3.25-.46,9.53-.17,3.82.8,7.84,1,20,1.84l36,.09Z"/><path d="M187.54,385.31c.93,0,1.79,0,2.42,0-1.33-.16-2.35-.31-3.05-.44l-1,0C185.86,385,186.44,385.11,187.54,385.31Z"/><path d="M185.72,384.8l-3.83-.12C183.23,384.76,184.54,384.81,185.72,384.8Z"/><path d="M214.76,392.13c2.1.16,3,.24,3.35.3l9.66.16C222.48,392.34,217.27,392.09,214.76,392.13Z"/><path d="M153.87,387.85c-5.91-.14-9.59-.06-9.4.31,10.69.14,24,.69,32.87,1-1.52.17.66,1.35,4.63.91-.75-.56,7.25-.25,14.13,0-5.91,0-3.69,1.11,4.61,1.14-13.33-1.47,20.36,1.38,4.74-.32,9.6.55,21.05,1.27,28.36,1.8l5.68.09c-9.08-.89-19-1.57-21.5-1.87,5.16,1.42-39.55-4.09-41.81-2.9,12.61,1.37-12.39-.95-4.58-1l-17.39-1.25-51.74-.13C115.33,386.79,141.48,386.68,153.87,387.85Z"/><path d="M238.22,393l-4.41-.34-6-.09C231.52,392.76,235.31,392.94,238.22,393Z"/><path d="M19.59,376.51a11.78,11.78,0,0,1-2.71-.61,31.12,31.12,0,0,0,10,3.85,71.84,71.84,0,0,0,15.68,1.3c-3.65-.29-7.28-.57-11.08-1.16a57.14,57.14,0,0,1-5.83-1.21A34.81,34.81,0,0,1,19.59,376.51Z"/><path d="M138,402.88h0C139.07,403,138.92,403,138,402.88Z"/><polygon points="236.18 402.55 236.18 402.55 236.18 402.55 236.18 402.55"/><polygon points="236.12 402.53 236.15 402.54 236.17 402.54 236.18 402.55 235.05 402.31 235.63 402.43 235.91 402.49 236.05 402.52 236.12 402.53"/><polygon points="236.24 402.35 236.19 402.34 236.25 402.35 236.24 402.35"/><polygon points="235.49 402.2 236 402.3 236.19 402.34 235.49 402.2"/><path d="M12.28,383.76c-1.66-.68-3.25-1.67-4.82-2.48A34.35,34.35,0,0,0,12.28,383.76Z"/><path d="M3,382.65l-.39-.24c-.3-.3-.6-.59-.89-.92q.27.38.57.72l-.07,0,.07,0a29,29,0,0,0,3.64,3.7,39,39,0,0,0,7.57,4.84c.66.32,1.31.63,2,.9s1.33.55,2,.77c1.28.47,2.54.86,3.78,1.2a63.26,63.26,0,0,0,13.19,2,66.61,66.61,0,0,1-16.21-3.5,42.8,42.8,0,0,1-15.59-9.73Z"/><path d="M5.66,383.46a38.43,38.43,0,0,0,6.11,2.88A57.21,57.21,0,0,1,5.66,383.46Z"/><path d="M266.1,399.76h-.32l.32,0Z"/><path d="M266.65,400c.21,0,.47.09.77.13l.12,0h.09v-.3h-.05l-.19,0-.39,0-.77-.05h-.14C266.06,399.85,266.26,399.93,266.65,400Z"/><path d="M263.3,383.19l3.84,1c1-.26.06-.87-4.75-2-3.31-.26-14.26.32-18.77-.43l.42.2,1.6.26c3.55.23,7.41.39,11.23.73A19.86,19.86,0,0,1,263.3,383.19Z"/><path d="M238.61,381.54c1.5.12,3,.23,5.57.58h.09A1,1,0,0,0,244,382a66.3,66.3,0,0,0-11.49-.45c6.34.68,12.31,1.31,11.72.63l-.09,0C242.18,382,240.29,381.81,238.61,381.54Z"/><path d="M219.91,380.48a68.66,68.66,0,0,0,12.64,1C227.53,381,222.28,380.42,219.91,380.48Z"/><path d="M253.19,383.17a61.84,61.84,0,0,0,12.71,1.14,65.33,65.33,0,0,0-9-1.36A20.35,20.35,0,0,1,253.19,383.17Z"/><path d="M269.81,384.89h0l-.24-.08-.53-.15-1.89-.51a6.16,6.16,0,0,1-1.24.16l.45.09c1.11.26,2.16,1.39,3.19,1.63l.1,0h0l.15-1.16h0Z"/><path d="M244.27,382.14c1.07.14,2.31.33,3.82.57-.87-.19-1.68-.35-2.45-.49l-1.37-.09Z"/><path d="M237.75,399.12c15.23.73,18.65,2.28,28.29,2.11-9.14-.67-12.33-1.25-18.84-2C247.13,399.52,238.94,399,237.75,399.12Z"/><path d="M262.21,388.38a4.53,4.53,0,0,0-1.46-.43Z"/><path d="M266.5,389.65l-4.29-1.27A24.31,24.31,0,0,0,266.5,389.65Z"/><path d="M264.69,396.09l1.61.11-.17-.52c-1.21-.07-2.66-.14-4.56-.22C261.59,395.73,262.74,395.93,264.69,396.09Z"/><path d="M153.63,378.27c-11.77-.56-14.65-1.12-18.76-1.09,11.12,1.55,41.54,3.59,46.91,3l-9.38-.73c-2.87-.21-5.56-.4-4.72-.16,3.63.33,9.25.73,9.36.95-17.49-1.61-13.42-.51-28.16-1.67,0-.21-3.77-.51-4.65-.74C150.79,378.3,162.15,379,153.63,378.27Z"/><path d="M78.5,373.91c14,.27,52,3.42,47,2.83-8.35-.68-19.49-1.58-23.46-2,14.7.86,19.35.8,28.23,1.1,4.42.71-14-.29-.08.84.1-.41,12.8.61,9.44-.2-8.92-.56-10.21-.93-18.67-1.52,4.84,1.21-24.5-2.52-28.31-1.27,5.29.28,7.33.56,9.41.84C93.46,373.73,86.1,373.93,78.5,373.91Z"/><path d="M14.47,369.34a9.54,9.54,0,0,0,3.69,3.3c.59.51-.74,0-1.54-.39s-1.2-.49,1.26,1a30.6,30.6,0,0,1,2.76,1.49,27,27,0,0,0,2.58,1.19c.94.37,1.88.7,2.72.94.78,0,3.06.15,2.6-.1l-.9-.26c-1-.15-1.93-.33-2.95-.54.51,0,1.08.1,1.74.16a34.32,34.32,0,0,1-3.28-1.25,28.05,28.05,0,0,1-2.92-1.55,23.28,23.28,0,0,1-4.93-4c.08-.24,4.28,1.32.41-.4-.07,0-.26.13-.55.25a16.07,16.07,0,0,1-3-4.68A21,21,0,0,0,14.28,369c-1-.28-2.21-.44-3.24-.72a3.56,3.56,0,0,1,.34.34,4.7,4.7,0,0,0,1.74.71A4.22,4.22,0,0,0,14.47,369.34Z"/><path d="M9.27,367.52a4.6,4.6,0,0,0,1.77.8c-.39-.32-.92-.81-1.58-1.42l-.71-.71-.32-.37a16.24,16.24,0,0,1-.87-3.3h0V363l0,.69c.08.9.17,1.69.27,2.25l.06.14-.12.13,0,0,0,.06.23.23A22.18,22.18,0,0,0,15.56,375a23,23,0,0,1-6.46-7.65Z"/><path d="M266.8,379.91a27.5,27.5,0,0,0-4.93,0l4.47.25C266.16,380.1,266.28,380,266.8,379.91Z"/><path d="M271.21,380.46l-4.87-.28A24.73,24.73,0,0,0,271.21,380.46Z"/><path d="M247.75,379c3.63.33,5.43.61,4.64.79,12.15,1,8.33.37,9.48.11l-9.44-.53A19.87,19.87,0,0,0,247.75,379Z"/><path d="M363.84,198.19l-2.64,0,.18.05Z"/><path d="M321.11,194.81l9.44.19C324.9,194.36,320.7,194.11,321.11,194.81Z"/><path d="M188.64,204.74l4.76.44C191.94,205,190.35,204.88,188.64,204.74Z"/><path d="M331.62,213.38l2.23-.32h-.07Z"/><path d="M128.71,198.38a22.3,22.3,0,0,1-3.51,0l8.51.87C132.26,199,129.36,198.62,128.71,198.38Z"/><path d="M114.16,197.29l7.65.9,3.39.18Z"/><path d="M338.34,195.16h0Z"/><path d="M90.1,193.92l-7.1-.7L95.88,195l12.9,1.62c1.7-.06-3.51-.66-8.88-1.28S89,194,90.1,193.92Z"/><path d="M368.55,194.51,357,193.14c-.51.16,0,1.05-.34,1.89h1C359.24,194.83,363.24,194.64,368.55,194.51Z"/><path d="M235.59,184.17l23,1.77c4.59-.28,10.57-.23,23.22.43-12.35-.73,10.7-.3-2.92-1.43l2.84-.48c-7.81.27-14-.35-12.86-.08-2.45-.1-1.34,0,3.27.5l2.17.31c-8.5-.65-19.56-1.48-21.25-1.37,9.89.74,14.72,1.2,17.21,1.69L258.69,185c2,.15,4,.32,5.75.5-4.33-.12-12.53-.74-19.15-1.17S233.62,183.6,235.59,184.17Z"/><path d="M87.7,169.88,78,168.44a13.88,13.88,0,0,1,2,1.12C82.26,169.63,84.9,169.74,87.7,169.88Z"/><path d="M74.64,169.66c2.13.17,4.26.33,6.4.45-.36-.18-.68-.37-1-.55C75.49,169.4,72.82,169.37,74.64,169.66Z"/><path d="M68.33,166.9l-1.52-.24C66.67,166.75,67,166.83,68.33,166.9Z"/><path d="M93.94,194.94l-7.46-.56,8.74,1.28C98.23,195.65,98.66,195.51,93.94,194.94Z"/><path d="M201.25,181.16c19.12,1.59,38.27,2.8,57.44,3.83-7.69-.68-16.82-1.15-25.19-1.76s-16-1.14-20.71-1.85C202.72,180.5,199.72,180.53,201.25,181.16Z"/><path d="M67,191.45c7.38,1.31,12.62,2.14,16.42,2.74l3.06.19C80,193.45,73.48,192.5,67,191.45Z"/><path d="M193.66,205.2l-.26,0h.26Z"/><path d="M81,170.11l14.43.93c2.69.41,5.38.76,8.08,1.13a24.82,24.82,0,0,0,4.35.74c15.92,1,12.56,1,9.7,1.28,3,.41,4.85.74,3.12.89-3.13-.37-5.58-.77-7.78-1.1-5.15-.41-9.55-.73-14.66-1,.22.13.19.23-.54.23C86.62,172.25,83,171.15,81,170.11Zm16.77,2.64a12.61,12.61,0,0,1,2.06.21c4.9.2,4.47,0,5.25-.16l-1.59-.2C95.37,171.92,96.76,172.32,97.81,172.75Z"/><path d="M109.35,171.8a72.9,72.9,0,0,0-9-1.08c-3.93-.31-8.45-.63-12.63-.84L95.47,171C100.09,171.34,104.72,171.54,109.35,171.8Z"/><path d="M63.88,166.19l2.93.47C67.19,166.43,70.3,166.18,63.88,166.19Z"/><path d="M69.23,166.94l-.9,0L78,168.44C76.56,167.83,74.26,167.31,69.23,166.94Z"/><path d="M96.66,195.85l6.58.89a9.83,9.83,0,0,1-2-.56C99.06,196,97.68,195.91,96.66,195.85Z"/><path d="M103.24,196.74c1,.21,2.37.45,4.1.72l1.62,0Z"/><path d="M107.35,196.6l6.81.69-5.38-.68C108.5,196.62,108.05,196.62,107.35,196.6Z"/><path d="M105.53,197.44l5.65.6-3.84-.58Z"/><path d="M93.17,195.62c1.29.13,2,.16,3.49.23l-1.44-.19Z"/><path d="M75.14,173.91a12.79,12.79,0,0,0-.91,3.52Z"/><path d="M147.21,202.83,136,201.76l-11.2-1.2-10.1-1.1-7.89-.91c18,2.12-14.71-1.18,5.69,1.33-.38-.42,3.32,0,8.89.62s13,1.5,20.08,1.83C140.92,202.62,158.26,203.9,147.21,202.83Z"/><path d="M83.42,194.19,74,193.61,64.33,193l-9.61-.52-23.21-1.26,14.88-21L50,165l.16-.21-4.37,4.88L28.7,188.82l25.91,4.35,4.71.79c-1.83-.64,16.66.82,17.31,1.12l16.54.54C91.57,195.45,89.13,195.1,83.42,194.19Z"/><path d="M74.23,177.43,73,182.15A14.9,14.9,0,0,0,74.23,177.43Z"/><path d="M128.71,198.21c-.2,0-.17.1,0,.17S128.85,198.29,128.71,198.21Z"/><path d="M186.66,201.76l2.25.21c.93.07,2.1.14,3.61.21,11.77.54-.69-.33,1.09-.36-3.5-.35-7.59-.78-10.86-1-3.62-.59-4.79-.92-8.16-1.41l-12.33-.83-6.17-.42-6.16-.49c-3.11-.21-6.41-.46-9.73-.76l-3.36-.27,19.07,2.15L175,200.69h.12C184.73,201.17,183.85,201.43,186.66,201.76Z"/><path d="M204.13,202.24l-2.37-.1,2.73.4C205.29,202.48,205.3,202.38,204.13,202.24Z"/><path d="M200.78,202.1c-4.63-.18-6.61-.29-7.17-.28C198.61,202.34,202.39,202.61,200.78,202.1Z"/><path d="M200.78,202.1l1,0-1.61-.22Z"/><path d="M186.66,201.76,175,200.69c-3.46.19-19.42-1.05-36.65-2.65l-25.42-2.38c-7.86-.75-14.66-1.25-19-1.35,8.64.66,14.78,1.19,19.57,1.71s8.28.92,11.56,1.38,6.39.93,10.47,1.45,9.15,1,16.35,1.56c-.29-.38,4.49-.18,11.62.17-7.91-.26-1.69.55,6.3,1.31s17.77,1.31,16.91.87c-1.39-.46-9.57-.32-11.62-.8.92-.2-1-.64,5.82-.32,1.68.31,8,.65,13.76.85l-5.76-.52C187.94,201.9,187.22,201.83,186.66,201.76Z"/><path d="M212.44,203.92l-1.56-.08a2.75,2.75,0,0,1,.61.28c3.53.32,5.67.38,7.6.46h2.29Q216.91,204.29,212.44,203.92Z"/><path d="M134.48,199.54l4.43.22-5.2-.52C134.32,199.35,134.67,199.46,134.48,199.54Z"/><path d="M203.91,203.25l-5.58-.18c4.89.32,8.92.57,12.55.77l-.16-.05Z"/><path d="M141.51,200.9s0,0,0,0l1.66.18L155,202l11.8.86-11.25-1-11.24-1.17c-7.5-.75-15-1.63-22.46-2.49l-6.33-.35c-2.22-.14-4.46-.26-6.52-.33,3.49.47,7,1,10.48,1.36C126.8,199.55,134.14,200.32,141.51,200.9Z"/><path d="M204.49,202.54c-1.44.09-5.46.1-9.82,0,3.08.29,6.16.5,9.24.76l5.17.11C208,203.12,206.49,202.85,204.49,202.54Z"/><path d="M73.41,174.67a8,8,0,0,0,1.5.11Z"/><path d="M103.34,177.24c-5.4-.34-9.44-.67-12.33-.88s-4.63-.32-5.42-.35c-1.56-.06.69.21,5.17.68,2.25.23,5,.53,8.21.83l10.38.93c7.37.69,15.41,1.31,22.51,1.91a7.71,7.71,0,0,0,1.57.32c.95.15,2.23.33,3.57.5,2.68.33,5.6.61,6.6.6-5.54-.64-11-1.39-16.58-2.11l-9-1-8.9-1.13,5.75.54L111,177.5c-2.72-.21-5.34-.37-7.69-.47L89,175.2c-6.13-.75-12.73-1.43-17.22-1.6l1.82.31c5.84.51,10.73,1,15.43,1.63S98.2,176.79,103.34,177.24Z"/><path d="M111,177.5,97.8,175.61l-13.21-2-6.61-1-6.6-1.09L58.19,169.3l6,16,4-4.48s.07.06,0,.16l-1.07,1.5-2.71,3L58.24,169l4.51.74c.49.13.8.19.83.14l-.83-.14c-.94-.22-2.59-.68-4.45-1.11l6.42,17.17h0L58.3,168.6c6.35.52,11.84,1.26,18.64,2.23l11.47,1.51c4.33.54,9.25,1.18,15.06,1.73,1.34.54-2.52.2-6.94-.25s-9.38-1-10.27-.64a46.16,46.16,0,0,0,5.72.68c3.32.33,7.47.68,10.73.9,6.52.47,9.47.66-5-.31,1.09.26,5.75.68,5.72.89,14.91,1.3,24.7,2.06,35.16,3.18,5.23.5,10.63,1.08,16.92,1.8l22.31,2.42c-11.95-1.62-9.69-1.46-3.41-.83s16.58,1.58,20.7,1.82c18.93,1.5-28.74-2.29-5.89.43-.47.23-5.31-.28-10.47-.89s-10.63-1.42-12.39-1.58c-1.66.18,5.37.88,5.63,1.22,6.87.87,10,1.06,13.4,1.34s7.13.63,15.23,1.51c-9.06-2,9.71,1,.17-1.25,13.2,1.25,30.91,4.32,11.35,1.89,1.07.27,5.73.75,5.68.95,9.81.82,14.89,1.08,17.27,1-.13-.22-7-.75-11.45-1.16,2.62,0,7.91.38,12.78.68s9.33.46,10.27.31c16.62,1.42-8.84-.37-5.82.19,17.66,1.52,11.11.3,28.76,1.75-4,0-.73.37,5.59.94L299,193l-18.26.11c-2.53-.19-4.69-.39-6.44-.56,2,0,2-.19-3.54-.45h-.2a7,7,0,0,1-1.16-.26c-8.37-.51-13.33-.8-17.3-1.14s-6.94-.64-11.36-1.23c-7.62-.27-1.37,1,11.33,2.14-1.63-.92,5.59,0,12.31.31-8.36-.21-11.33-.27-14.84-.25l-6.2-.41c-.28-.2-7.27-.6-13.77-1q-43.09-3.23-86-8.46c.52,0,.52-.1-.33-.32-6.19-.61-11.42-1.25-16.25-1.79-4.06-.55-8.14-1-12.2-1.63,13.88,1.32,25.05,3,22.82,2-2.26-.29-6.34-.74-11.14-1.21S116.19,177.91,111,177.5Zm55.05,6.28c-1.65-.62,7.75.36,11.49.64-2.21-.3-5-.62-7.3-.9a40.8,40.8,0,0,1-4.09-.57c5,.49,9.41,1,13.23,1.48s7,.86,9.57,1.19C182.05,183.35,146.92,181.44,166.09,183.78ZM154.75,182c.27-.26-2.65-.75-5.65-1.24,9,1,19.81,2,17.2,1.31-7.88-.72-12.54-1.33-17.14-1.94C151.32,181.05,134.05,179.65,154.75,182Z"/><path d="M73.41,174.67l-2.17-.28C70.53,174.42,70.71,174.48,73.41,174.67Z"/><path d="M85.84,181.78c-5.34-.22-10.88-.36-14.76-.39l-6.86-.8c4.1,0,5.81-.15,10-.16a139.45,139.45,0,0,0-16.44-.58l-1.17-.13-1.33-.16.87-1.07.83-1c-.35.33-.66.6-.91.81l-.06.11L55.11,180l1.49-.06,1.2-.05,6.42.74c-1.62,0-3.61,0-7.69-.18l-1.42-.07.53-2.31a33.71,33.71,0,0,1,2.94-4.93,22.55,22.55,0,0,1-1.32,3,37.28,37.28,0,0,1,3.12-2.83l4.33-5.36,0,0-.14.27c-1.48,2.83-1.4,6.68-2.71,8.91-.92,1.63-1.74,3.06-2.39,4.19l-2.18-5.84.86,0q37.87,6.82,76.05,12c-7.09-.6-14.19-1.12-21.28-1.79-5.71-.65-11.6-1.25-18-1.9s-13.16-1.32-20.73-2c.9-.26,7,.26,13.38.93l9.25,1,6.11.69c9.78.45,6,0-.44-.64S86.89,182.11,85.84,181.78Zm-27.37-6.15.77-.95c-.69.59-1.53,1.35-2.41,2.22l-.32.59A19,19,0,0,1,58.47,175.63Z"/><path d="M77.1,188.57a20.05,20.05,0,0,1-3.93-.19c1.49.22,2.79.4,4,.55l4.22.26Z"/><path d="M84.82,189.7c.12,0-.35-.18-1.24-.36l-2.22-.15Z"/><path d="M60.23,180.67l-.65.72-2.29-6.1.84.14h.39l-1.22-.17,2.3,6.17Z"/><path d="M77.14,188.93l-8.8-.56c-4.27-.27-8.56-.38-12.93-.55l-15.12-.59,9.65-14.06.94-1.37-1.05,1.28L39.36,185.89l16,2.07q40.65,5.22,81.45,8.64c-17.37-2.11-34.72-4.31-52-6.9C84.6,189.79,82.39,189.6,77.14,188.93Z"/><path d="M304.09,194.3l2.67.08a9.73,9.73,0,0,1,2.84-.15,3.51,3.51,0,0,0,1.15.28l3.58.11a42.32,42.32,0,0,0-4.49-.69l-4.47-.09C297.36,193.71,301.71,194.05,304.09,194.3Z"/><path d="M310.75,194.51l-4-.13a7.87,7.87,0,0,1-2.62.43c-1.84.09-5.23.12-12-.24a124.82,124.82,0,0,0,13.55.58c2.79,0,5.85.11,15.16.93-11.19-.58-4.09.55,5.46,1.5-.91-.3.84-.56,4.25-.63s8.49.09,14.25.52l1.76-.29-4.39-.65c-.75,0-1.54,0-2.43,0a16,16,0,0,1,1.8-.11l-6.4-.87c-.61.35-1.84.59-14-.74,0,0,0,0,0,0-2.26,0-4.52-.11-6.78-.19a3.2,3.2,0,0,1,.94.34C312.85,194.76,311.52,194.62,310.75,194.51Z"/><path d="M72.66,175.05c-.73.81-1.46,1.64-2.17,2.5a68.91,68.91,0,0,1-7.11,7.09L58,170.35c4.53,1.32,8.48,2.65,11.1,2.61-.37-.4-6.35-1.69-11.07-2.84l5.48,14.67c2.3-2.23,4.26-4,4.61-3.95l3-3.34Z"/><path d="M360.52,191.21l-.57.17c2,.08,3.93.2,5.74.41l-1.28.33c1.83.34,3.16.65,2.92.83l-3.2-.76-2.7.71-4.26-.43c-.69.29-1.36.59-2,.85,1.06.2,1.05.29-.47.17a8.71,8.71,0,0,1-3.3.64c-9.18.29-11-.94-5.38-1.17l4.36,0,0,0c-1.77-.06-3.24-.06-4.39,0-9,0-14.56.23-19.74.53.28,0,.59.09,1,.13l-2.35-.05c-2.2.12-4.39.24-6.81.32s-5.08.09-8.22,0c-2.9-.33-6.71-.66-10.85-1l17.59-.29c-2.44-.52-5.94-1.15-18-1.81,8.18.34,3.35-.09-4-.73s-17.14-1.39-19-1.44c-11.86-1-1.26-1.1-17.15-2.12,4.31-.27,21.89,2,22.93,2.32,21.64.93,40,.84,57.67,1.59,6.2.69,12.91.62,19.05.84Zm-34.68,1.22c5.19-.16,10.38-.25,15.57-.46l-2.65-.24c1,0,2.33.08,3.77.19l2.09-.08c-3.6-.41-7.64-.81-11.47-1.13C333.51,190.79,328,191.63,325.84,192.43Z"/><path d="M337.49,195.15l-6.94-.15,4.6.57C335.5,195.38,335.65,195.15,337.49,195.15Z"/><path d="M349.48,195.27l-11.07-.11A76.36,76.36,0,0,0,349.48,195.27Z"/><path d="M370.34,190.72h-.46l-6.52,0a10.73,10.73,0,0,0-2.84.44l9.83-.49Z"/><polygon points="377.77 185.73 378.19 185.87 378.23 185.88 376.06 185.18 377.77 185.73"/><polygon points="378.27 185.89 378.25 185.88 378.23 185.88 378.29 185.9 378.27 185.89"/><polygon points="76.07 169.15 76.03 169.22 76.1 169.08 76.1 169.09 76.09 169.11 76.07 169.15"/><path d="M219.09,204.58c-5.24,0-9.18-.05-9.12.19-8.33-.31-15.25-.67-21.35-1.15s-11.39-.85-16.49-1.35-10-.92-15.34-1.32-11.08-.85-17.88-1.19l37,3.8q32.22,2.13,64.48,3.2c-2.37-.19-5.41-.43-11.59-.84A51,51,0,0,0,219.09,204.58Z"/><path d="M181.54,204.21l12,1c2.44.26,4.52.5,6.11.78a76.47,76.47,0,0,1,10.23.39l16.23,1.43c5.76,0,12,0,18.88-.19.15-.53.21.53,0,.63-.45.26-6.53.3-12.43.12,6.6.58,13.42,1,19.72,1.24,18.25,1.75-9.14-.14-22.64-1.32l-2.82-.09c2.71.35,3.25.46,2.93.51l3.69.11c1,.23-1.84.28-5.8.26a10,10,0,0,0,1.07.28c5.21.29,10.48.6,11.75.43,8.49.65-.62.14,0,.42-5.85-.32-11.7-.78-17.56-1.16-5.78,0-11.91-.19-12.79,0-2-.3-6.77-1-11.66-1.49L183.78,207c-2.81-.15-5.62-.27-14.59-.94-5.81-.54-11.64-1-17.45-1.6,8.76.53,16.46,1,23.89,1.48s14.61.88,22.34,1.23l-19.91-1.77-19.89-2c-3.69-.2-7.75-.54-12.17-.87,2.47-.21-4-1.07-5.79-.85-6.29-.5-3.91-.7-11.57-1.32a.84.84,0,0,1,.18,0c-7.4-.91-13.27-1.6-17.64-2.26,2.75.3,5.51.58,8.26.83l13.16,1.62,5.38.5c2.17.09,3.46.08,3.53-.09l1.66.14c6.48.7,13.24,1.35,19.81,1.82S175.89,203.85,181.54,204.21Zm41.46,3.5.59.07h.33Z"/><path d="M356.55,195.28a1.23,1.23,0,0,0,.14-.25c-2.41,0-4.78.13-7.21.24l5.1,0Z"/><path d="M358.83,198.38l2.55-.1a13.15,13.15,0,0,0,2.07.48l3.48.48h.25l-.05,0,1,.13,1,.15-.68.32.27,0h-.32l-.08,0-.21,0-1.92,0-.65.44c-2.73.09-5.34.16-8.21.18-1.11,0-2.25.07-3.45.17,2.52.37,5.72.78,9.25,1.18l3.05,2.11,1.56.19.78.09.2,0h.12l-12-.11a29.69,29.69,0,0,0,4.13.25l6.06.1h1.25c-5.65.15-11.23.26-16.64.27s-10.65.09-15.62.06l-25.67-.12c-17.92-.84,16.69.39,11.66-.28-10.33-.3-15.06-.36-18.52-.26s-5.67.29-10.91.18l2,.26c1.05,0,2.27.06,3.87,0,6.94.21,3.16.21-2.62.1,1.72.2,3.84.38,6.78.55-3.41-.67,2.48-.86,17.34.87,2.37-.1-8.37-1.5.17-.63,2.71.45,5.34.82,7.85,1.26l.61.1,3.42-.37-3.33.38.8.12,1.27-.16,1.05-.12h.27l.06.41-.93.08-.42,0,.43.06,1-.11-.39,0-.54.06.49.08-1.29,0-.46.05.44-.05-6.87.1c-2.86.33-5.72.67-8.58,1l1,0c-.1.16-.67.28-1.59.38l1.65,0a63.06,63.06,0,0,1-7.92.51l4.75.34c7.42-.08,16.69-.64,15.11,0-2.38.36-5.47.65-9,.87,4.82.69-.47.21,5.07,1.25,6.27.88,4.65.28,5.59.16l.85.14h.05l-.39.93-.09,0-.17,0-1.45-.25c-3.83-.72-7.89-1.29-12.25-1.87L315,210.8c-6.47.22-14,.36-21.23.25s-14.27-.28-19.76-.59c-11-.58-15.9-1.18-4.62-1l-12.16-.94a40.12,40.12,0,0,0-4.78-.15l-.72-.06h-1l.49-.05c-4.34-.4-3.43-.56-4.63-.79-5-.37-5.56-.29-5.9-.18-6.25-.71-3.57-.63,2.19-.24l-2.55-.25c7.56.19,15.12.5,22.68.59a10.94,10.94,0,0,1-2.88-.4c-1.83-.08-3.65-.17-5.47-.28-.2.1-.85.12-5.57-.32-5-.3-9.94-.54-14.91-.89l.54.07-1.69-.14-11.71-.81,3.91,0-3.24-.34c-3.17,0-6.24-.15-9.61-.34l-1.72-.13a15.88,15.88,0,0,0-1.64-.43c2.07,0,3.82,0,5.27,0-6.51-.81-12.46-1.64-14.08-2.09-12.49-1.48-2.75.44-6,.37a103.06,103.06,0,0,0-13-1.89c-2.25-.13-4.51-.24-6.76-.4-2-.28-4.66-.6-9-1-3.45-.08-9.15-.24-15.63-.7l-9.73-.76c-5.21-.45-10.46-1.16-15.15-1.93.13-.06,2.8.18,6.43.54s8.24.81,12.25,1.18c8,.75,13.68,1.27,4.47.22-11.16-1-22.59-2.35-33.17-3.6s-20.32-2.6-28.08-3.71l4.7.35c-6.58-.76-5.69-.88-.37-.59-4.47-.5-11.09-.9-12-.79l2.66.35,2.78.38,2.2.3-3.37-.23c-.59-.12-1.38-.26-2.28-.41a13.55,13.55,0,0,1-2.06-.33l-.23,0-3.17-.29c.84.14,1.3.24,1.26.3l-3-.47a143.76,143.76,0,0,0-16.71-.55l11-.33-2.53-.3-3.23-.42c-2.14-.09-4.59-.13-6.94-.08l-12.3.28L51,174.08c.51-.83,1-1.64,1.42-2.44,1.18-1.43.26.36-1.08,2.73l-6.8,12.1L55.69,186l2.53-.11-2.45-.41-12-2,8-8.75c1.23-1.35,2.47-2.66,3.71-3.88l-3.53,4-7.51,8.57,11.38,1.79,3.75.59c1.94-.07,3.52-.13,3.58-.17,11.39.65-8.12,0,11,1.36,8.36.73-2.22-.49,0-.64l1.4.16C69.43,185.61,63,184.88,57,183.6l-.91-.2h0l-7.95-1,5.21-6.32,6.2-7.52-1.49,3.07c.85-.73,1.7-1.44,2.56-2.08l.16.38,0,0-.16.13-.32.28c-.85.73-1.68,1.37-2.49,2.17l-.29.28v0c-1.43,1.67-2.59,3-3.4,3.86l-4.28,4.62,6.42,1.11c3.74.65,6.23,1.21,10.45,2l10,1.29c1.66-.3-3.59-1.72-13.77-2.42,18.2.95,11.79.71,22.8,2.07-.21-.3,2.27-.2,5.07-.09l-1-.13c-13.78-1.3-20.59-2.32-22.9-2.92-3.33-.57-5.67-1.08-4.4-1.12l3.79.51a30.21,30.21,0,0,1,4.83-.23q20.9,2.38,41.82,4.26c12.58,1.35,24.33,2.73,38.37,4,5.39.72,10.79,1.33,16.18,2-1.39-.28-3.41-.6-7-1,2.09.07,5.94.37,8.68.52-6.43-.49-12.34-.94-17.87-1.5-5.7-.75-11.4-1.45-17.09-2.25,5.11.43,10.23.75,15.35,1.13l7.67.55,7.68.46c-5-.22,1,.38,7.55,1.06s13.8,1.34,11.29,1.53l-5.37-.31c3.35.5,4,.93,17.33,2.31a62,62,0,0,1-7.4-.51l-4.43-.13,8.67.93,8.42.54-5.58-.23,17.32,1.68c5.6.27-1.49-.62-6-1.31,16,1.23,34.51,2.13,58.93,3.51-.49-.14-2.12-.32,2.17-.57,4.75.17,9.57.39,17.73.59-.48.09-3.18.07-6.63,0s-7.63-.18-11.09-.2l16.81.8c-2.86,0-5.72,0-8.57-.06l11.44.61a51.92,51.92,0,0,0-5.19.2,115.42,115.42,0,0,1-12.19-.42c1.11-.11,5.81.09,5.81-.12-12.21-.66-13.71-.28-20.14-.63L253,198.8c5.34.44,6.82.76,5.56,1.07l-12.84-.65c10.78.84,21.57,1.49,32.37,2.16s21.61,1.16,32.42,1.55L300,203c6.58.26,12.55.56,16.28,1.11,7.81.08,10.84-.19,11.67-.56l2,0-3.13-.1-.76,0c-1.59.07-2.8.09-3.66.06a4.26,4.26,0,0,1-1.72-.28c-3.38-.08-6.75-.26-10.13-.39,4.52,0,9-.08,13.55-.19l2.08-.13c-.76,0-2.32-.07-5.06-.31-2.56-.69-8.2-1.32-14.93-1.78s-14.56-.89-21.48-1.22l12.23.07,12.24-.05c1.25.15-5.28.1,1.61.41,3.44-.16,4.7-.28,7.37-.26s6.74.12,15.8.44a12.71,12.71,0,0,1,2.85-.86c3.07.16,6,.29,8.68.46v-.18c5.8,0,11.6.07,17.4,0h1.39l-1.26-.22ZM218.22,198c-1.66-.07-3.53-.19-5.82-.33.67.15.66.23.26.25C214.52,197.92,216.4,198,218.22,198Zm-17.52-.34s0-.07.12-.1l.92.05a3.94,3.94,0,0,0-.62-.21c-3.86,0-5.34,0-5.17,0S198,197.55,200.7,197.63Zm-33.41-1.5-1.51-.11.72.14A3.11,3.11,0,0,0,167.29,196.13Zm69.89,2.68-6.72-.34c1.3.1,1.49.17-3.36.32C231.65,198.83,234.9,198.84,237.18,198.81ZM98.47,188.51c2.36.41,6.68,1,11.74,1.58l27.11,2.7,0,.28a35.35,35.35,0,0,1,5.32.8c2.87.13,5.56.27,9.13.58.15-.14-1.74-.51-3.23-.92,5.26.72,9.76,1.23,14,1.63,2.64.15,6.94.58,10.06,1l2.33.22,25.34.93c-3.42-.29-7-.69-11.88-1.2Q143.37,193.39,98.47,188.51Zm117.41,13c1.57.26,2.63.42,3.39.57h2.21c.22.32,3.54.56,8.06.77l7.42.3,7.77.22c1.72-.43-7.84-.42-11.63-.71l10.87.08-2.79-.38C232.74,202.16,224.31,201.82,215.88,201.52Zm28.9,2.7c-3.39.05-6.38.12-9.1.13l3,.28C242.58,204.56,245.15,204.44,244.78,204.22Zm31.06-.9-4.19-.39-12.3-.15c-4.1-.06-8.2-.19-12.3-.27l2.65.35c3.94.09,6.53.22,12.42,0-.43.38,1.32.65,5.82.9-10.62.25-19.64-.38-29,.22,8.27.08,9.8.38,17.41.53-3.54-.37-1.29-.38,2.61-.37l12.57.08c-1.41-.18-2.35-.35-1.53-.48h.13c.54-.11,1.82-.26-2.25-.62Zm-29.16-4.69L242,198.5c0-.06-.15-.12-.45-.19a.23.23,0,0,0,0,.18H242a1.14,1.14,0,0,1-.49.12.36.36,0,0,1-.2.1C245.93,199,246.48,198.81,246.68,198.63Zm.39-.44c-1.66-.07-2.81-.11-3.64-.11l6,.32Zm-74-5.86q3.71.46,7.43.85c.94,0,1.95-.07,3.05-.16l-5.76-.77C172.26,191.91,172,192.05,173.1,192.33ZM68.42,187.22h.24c1.31-.13-.78-.42-4.18-.61Zm33.09,3.44,2.79.21c2.21.12,4.84.33,8.1.63l1.71.14c-.45-.23-7.69-.95-10.94-1.34C92.13,189.62,103.83,190.6,101.51,190.66ZM216,203.36c6.43-.23,4.05-.8-6.12-1.33,2.45.08,4.06.1,5.45.1l-8.35-1-9.17-.42c1.62.33,4.24.81,8.14,1.47C210.8,202.8,213.82,203.14,216,203.36Zm14.8,1.28h4.92l-2.22-.3h-5.41Zm42.68,2.9.4.05c5.63.28,11.26.42,16.89.64s11.26.36,16.89.49l6.45-.16c-6.69.07-11.93-.14-9.83-.51,5.13,0,10.32-.09,11.56,0,3-.13,5.22-.33,7.18-.5-8.26.14-16.51.1-24.77.16S281.77,207.68,273.51,207.54ZM301.18,206l1.36.06Zm29.69-3.34,3.63-.08h-.07l-.15,0-.31,0-.63-.07-1.32-.14c-3.57-.43-7.65-.87-10.67-1,1.42.19,6.44,1.14,5.15,1.32h.1l3-.19.75,0,.37,0h.09Zm35.69-3-.09.06.93.07Z"/><path d="M181.54,204.21l7.1.53-12.73-1.18-9.15-.67C171.69,203.35,176.61,203.83,181.54,204.21Z"/><path d="M358.2,198.28l3-.05c-1.39-.43-2.78-1-4.14-1.53-1.15.25-2.8.5-4.52.74C354.73,197.72,356.53,198,358.2,198.28Z"/><path d="M357,195.28h-.48l-.06.06c2.21,0,4.41,0,6.61,0a47.6,47.6,0,0,0-5.39-.32C357.19,195.11,357,195.19,357,195.28Z"/><path d="M351.94,195.51c.52,0,1.05.09,1.61.18a9,9,0,0,1,1.29.27l1.08-.13a1.89,1.89,0,0,0,.57-.49l-1.91,0C353.61,195.36,352.74,195.43,351.94,195.51Z"/><path d="M357.06,196.7c1.82-.39,2.38-.76,0-1l-1.11.13a4.27,4.27,0,0,1-.6.27C355.89,196.28,356.47,196.47,357.06,196.7Z"/><path d="M335.48,199l1.27.06.39-.09Z"/><path d="M351.29,196.63a12.62,12.62,0,0,0,4-.53l-.48-.14c-1.3.16-2.73.35-4.23.58A1.79,1.79,0,0,1,351.29,196.63Z"/><path d="M348.28,196.9l2.33-.36c-.8-.06-2.25-.1-3.86-.12A3.88,3.88,0,0,0,348.28,196.9Z"/><path d="M346.63,196.2c1.84-.22,3.41-.5,5.31-.69C348.85,195.27,346.67,195.71,346.63,196.2Z"/><path d="M346.63,196.2c-.65.08-1.33.15-2.08.21h2.2A.26.26,0,0,1,346.63,196.2Z"/><path d="M171.53,186.26c-5.34-.18-46.78-3.65-22.82-1.68-3.68-.63-13.05-1.58-11.32-1.8-5.32-.34-8.64-.42-11.42-.43-6.67-.66-4.77-.84-5.65-1.17A103.82,103.82,0,0,1,109,180c-7-.48-11.71-.69-11.42-.3l-4.09-.38c5.12.84,10.17,1.63,15.63,2.66,5.38.44,8.74.34,11.51,1,13.77,1.37-3.13-1.26,17.3,1-4.49-.23-6.22-.11-5.82.3l25.74,2c7.36.51,13.67.92,19.5,1.08C173.45,186.84,170.69,186.4,171.53,186.26Z"/><path d="M281.16,193.43l-3.56-.2,3.14.27S280.91,193.44,281.16,193.43Z"/><path d="M166.47,189.66l-1.59-.08,1.87.11Z"/><path d="M277.6,193.23h-.18l-.44,0Z"/><path d="M341.55,196.44l.63.09c.87,0,1.65-.07,2.37-.12C343.45,196.41,342.4,196.42,341.55,196.44Z"/><polygon points="79.11 169.05 78.66 169.51 78.61 169.61 79.11 169.05"/><path d="M73.56,174.05l.92-1.8-.19.18-1.63,2.62.86-.93Z"/><path d="M70.06,179.22l1.82-2.05.21-.26.6-1.16-1.56,1.75Z"/><path d="M75.29,171.46l-.62.41-.19.38Z"/><polygon points="74.83 171.57 74.62 171.91 74.67 171.87 74.83 171.57"/><path d="M274.6,193.06l2.38.13-1.91-.12Z"/><polygon points="78.06 170.8 78.57 169.71 78.61 169.61 78.61 169.61 78.06 170.8"/><path d="M78.61,169.61l0-.1-.93,1a62.72,62.72,0,0,0-5.64,6.45l0,.08Z"/><polygon points="78.69 169.45 78.66 169.51 78.66 169.51 78.69 169.45"/><path d="M78.93,168.72l-.06.06-.23.22c-1.6,1.48-3.36,3.23-5.12,5.12l-.83,1.63Z"/><path d="M350.14,197.74l-1.06.13c1.17.13,2.37.27,3.57.43h.61Z"/><path d="M354.29,198.5l4.54-.12-.63-.1-4.94,0Z"/><path d="M264.91,192.39l10.16.68h.9c-1.93-.2-3.51-.38-4.65-.55C269.09,192.51,266.5,192.47,264.91,192.39Z"/><path d="M354.17,198.51l-1.52-.21-7.18,0,3.61-.41c-1.46-.15-2.88-.29-4.27-.4-2.9.5-5.64,1.05-7.67,1.49Z"/><path d="M352.54,197.44l-3.29-.41c-.37,0-.68-.08-1-.13l-1.71.28,3.57.56Z"/><path d="M69.39,180.49c-2.9,6-1.24,3.42,1.8-1.86L72,177l-.16.18C70.89,178.45,70,179.6,69.39,180.49Z"/><path d="M70.06,179.22l-2.92,3.28-2.42,3.27a41.76,41.76,0,0,0,4-4.42l.65-.86.41-.85Z"/><path d="M281.16,193.43l18.38,1c7,.16,6.37,0,4.55-.17-4.82-.14-9.64-.34-14.45-.55l2.6.2C291,194,283.06,193.37,281.16,193.43Z"/><path d="M277.42,193.22l12.22.53-8.91-.68H276Z"/><path d="M354.29,198.5h-.12l.45.06Z"/><path d="M269.09,192h0Z"/><path d="M74.49,172c-1.24,1.42-1.53,1.72-.2.44l.33-.52Z"/><path d="M249.53,191.63c-3,0-6.3,0-13.63-.15.27-.28-2.71-.61-5.78-.95,5.83.32,6.92.54,11.61.82,1.21,0,1.68-.07,1.6-.13-4.6-.27-9.18-.63-13.77-1-6.14-.33-11.82-.55-11-.32,7.51.39,7.28,1,0,.63-1.52-.36-8.47-.9-16.61-1.43s-17.47-1.26-23.76-1.75h-.87c6.33.78,15.61,1.77,16.85,2.2.73-.31,4-.26,11.71.29,4.68,1,9.61,1.42,24.5,2.59,14.75.41,29.5.58,44.24.62C266.24,192.6,257.88,192.21,249.53,191.63Z"/><path d="M271.32,192.52c1.15,0,2.21,0,3,0-1.62-.17-2.88-.32-3.74-.45l-1.18,0C269.26,192.16,270,192.33,271.32,192.52Z"/><path d="M269.09,192l-4.72-.13C266,192,267.64,192,269.09,192Z"/><path d="M305,199.1c2.59.1,3.75.17,4.14.22,4,0,7.94,0,11.92-.1C314.5,199.16,308.08,199,305,199.1Z"/><path d="M229.93,194.53c-7.28-.32-11.81-.36-11.59,0,6.58.23,14,.62,21.07.95l19.4.8c-1.86.16.83,1.35,5.72.93-.93-.59,8.93-.18,17.41,0-7.29,0-4.54,1.14,5.7,1.1-16.46-1.34,25.12,1.18,5.83-.36,11.85.42,26,.87,35,1.09l7-.11c-5.61-.28-11.47-.5-16.31-.68s-8.68-.4-10.25-.52c3.21.62-9-.06-22.35-1.08l-19.08-1.35c-5.45-.35-9.41-.48-10.11-.2,7.77.72,3.95.48-.6,0s-9.84-1.15-5-1.1c-8.87-.67-15.82-1.16-21.38-1.65q-31.81-.76-63.61-2.75c7.87,1.09,19.86,1.93,31.78,2.72,6,.35,11.9.7,17.31,1.07S226.12,194.13,229.93,194.53Z"/><path d="M333.93,199.28l-5.45-.18-7.44.12C325.66,199.26,330.34,199.31,333.93,199.28Z"/><path d="M62.34,175.15a37.14,37.14,0,0,1-3.82.27c8.35,1.12,18.92,2.49,34.92,3.93-4.54-.72-9.16-1.37-14.23-2S68.65,175.92,62.34,175.15Z"/><path d="M210.08,209h0C211.42,209.21,211.24,209.17,210.08,209Z"/><polygon points="331.86 208.87 331.86 208.87 331.87 208.87 331.86 208.87"/><polygon points="331.78 208.86 331.83 208.87 331.85 208.87 331.86 208.87 330.45 208.68 331.17 208.78 331.52 208.83 331.7 208.85 331.78 208.86"/><polygon points="331.93 208.67 331.86 208.67 331.95 208.68 331.93 208.67"/><polygon points="330.99 208.55 331.63 208.63 331.86 208.67 330.99 208.55"/><path d="M57.52,184.48h-1.6l-9.27-.2,5.87-8.9c.75-1.15,1.53-2.29,2.13-3.45l-2.15,3.44-5.73,9.15,9.14,0Z"/><path d="M53.1,167.53l.19-.37.75-.87-.59.57,0-.07,0,.07c-1.15,1.08-2.28,2.19-3.35,3.33L48.51,172l-13,14.46,19.68,3.26c10.4,1.72,20.08,2.85,27.86,3.55-9.28-1.22-18.53-2.69-27.79-4l-18.54-2.7,12.22-14.2,4.4-5.12Z"/><path d="M52.49,170.11l-2,3.5-8.12,14,13.17-.49,2.57-.09-2.56.06-13.38.31,8.35-13.78C51.24,172.39,51.93,171.22,52.49,170.11Z"/><path d="M368.71,204.56h0S368.7,204.56,368.71,204.56Z"/><path d="M369.41,204.78c.25,0,.58.06.95.09h.26v-.31h-1.91C368.67,204.66,368.91,204.72,369.41,204.78Z"/><path d="M364.17,188.2l4.77.72c1.21-.33,0-.87-5.94-1.66-4.07,0-17.44,1.05-23,.55l.51.18,2,.18c4.36.05,9.1,0,13.79.17A31.7,31.7,0,0,1,364.17,188.2Z"/><path d="M333.86,187.8c1.83,0,3.65.14,6.85.35h.1a.89.89,0,0,0-.29-.16,104.75,104.75,0,0,0-14.08,0c7.79.46,15.13.85,14.38.18h-.11C338.25,188.12,335.93,188,333.86,187.8Z"/><path d="M310.92,187.33a93.72,93.72,0,0,0,15.52.65l-9-.48C314.7,187.36,312.36,187.28,310.92,187.33Z"/><path d="M351.79,188.74a59.53,59.53,0,0,0,7.57.57c3,.06,6.14,0,8.07-.16a106.25,106.25,0,0,0-11.15-.81A29.5,29.5,0,0,1,351.79,188.74Z"/><path d="M372.26,189.49h0l-.3,0-.65-.12-2.35-.39a9.77,9.77,0,0,1-1.51.23l.55.07c1.39.19,2.75,1.24,4,1.42l.12,0h0l.11-1.17h0Z"/><path d="M340.82,188.16l4.7.37c-1.07-.14-2.07-.26-3-.36l-1.68,0Z"/><path d="M333.65,205.39c9.42.09,15.22.35,20.14.64a110.88,110.88,0,0,0,14.94,0c-11.34-.06-15.32-.53-23.4-.94C345.25,205.38,335.11,205.22,333.65,205.39Z"/><path d="M363.17,193.45a6.72,6.72,0,0,0-1.81-.34Z"/><path d="M368.52,194.44l-5.35-1A36.17,36.17,0,0,0,368.52,194.44Z"/><path d="M366.72,201h2l-.24-.51c-1.49,0-3.29,0-5.64.07C362.88,200.83,364.31,201,366.72,201Z"/><path d="M229.71,185c-14.4-.9-17.92-1.66-23-1.8,3.4.5,8.27,1.14,13.77,1.68s11.65,1.08,17.56,1.54c11.85.8,22.81,1.33,26.1,1q-5.74-.36-11.49-.83c-3.51-.26-6.81-.5-5.78-.24,4.45.4,11.34.9,11.46,1.11-21.43-1.91-16.44-.69-34.49-2.31.05-.21-4.61-.63-5.69-.89C226.23,184.88,240.14,186,229.71,185Z"/><path d="M138,176.06c4.26.37,10.34,1,17,1.82l20.34,2.32c13,1.42,23.07,2.49,20,2.07L179,180.39c-5.27-.65-9.87-1.27-12.28-1.63l11.41,1.16,8.47.66c5,.35,9.15.66,14.58,1,2.69.44-1.58.24-4.4.09s-4.2-.15,4.28.75c.13-.42,15.64,1.17,11.55.22-10.9-1-12.46-1.35-22.79-2.44,2.94.73-4.53-.23-13.31-1.3s-18.87-2.32-21.21-1.89c6.43.72,8.92,1.1,11.44,1.54C156.26,177.21,147.27,176.7,138,176.06Z"/><path d="M67.48,177.73a44.19,44.19,0,0,0-5.28,5.91l-4.39-11.77H58c.58.14.34.2-.22.23L62,183.48c.83-1.46,3.47-5.18-.29-.25l-4-10.74.31,0a33.66,33.66,0,0,1,4.79.58l8.43,1.29c1.1,0,4.33,0,3.63-.25l-1.32-.23-4.36-.31c.74,0,1.59,0,2.54,0L57.9,171.24l4.79,12.81,4.68-5.21c.37,0-3.19,6.68.42.38a4.69,4.69,0,0,0-.18-.64l7-7.74c-2,2.17-4.36,4.28-6.65,6.47a32.34,32.34,0,0,0,1.18-4.59c-.17.27-.32.49-.43.63A8.69,8.69,0,0,0,67.48,177.73Z"/><path d="M69.91,170.12a10.59,10.59,0,0,0-.82,2.6c.41-.65,1-1.64,1.63-2.84l.73-1.34.35-.65,3.61-4h0l-.11.1-.41.38-.8.73c-1,.94-1.92,1.73-2.58,2.27l-.15.17-.19,0,0,.05,0,.1-.21.43L60.23,180.67l9.82-10.85Z"/><path d="M368.24,184.7a39.18,39.18,0,0,0-6,.34l5.49,0C367.47,184.94,367.61,184.84,368.24,184.7Z"/><path d="M373.66,185l-6,0A35.86,35.86,0,0,0,373.66,185Z"/><path d="M344.91,184.88c4.45.15,6.67.34,5.71.56a107.86,107.86,0,0,0,10.87.05c.86-.11,0-.29.72-.45-3.85,0-7.7,0-11.56,0A29.34,29.34,0,0,0,344.91,184.88Z"/><path d="M314.62,33.45c.17.88.31,1.77.5,2.67s.41,1.78.62,2.69l0-.38-.6-2.47Z"/><path d="M358.23,109.51c-4.59-4.62-9.14-9.33-13.52-14.24,3.74,4.59,7.19,8.4,9.65,11S358.3,110.05,358.23,109.51Z"/><path d="M504.68,300.11c2.22-2.15,4.44-4.39,6.83-6.55C509.35,295.5,507.1,297.73,504.68,300.11Z"/><path d="M357,81.39c-1-1-2-2-3-3l.1.1C355.07,79.56,356.05,80.54,357,81.39Z"/><path d="M426.41,393.06c-.33.65-1.85,2.8-4.07,5.85L433,385.1C431.06,387.4,427.38,392.09,426.41,393.06Z"/><path d="M408.57,416.87l9.68-12.38,4.09-5.58Z"/><path d="M334.29,82.66l1.1,1.41-1.19-1.53Z"/><path d="M377.85,455.74l-8.74,11.62,32.66-41.79C405.55,419.84,375.57,459.44,377.85,455.74Z"/><path d="M309.88,23.79a92,92,0,0,0,.82,12.52,97.15,97.15,0,0,0,2.56,12.29c.5,1,1-.39,2,.14l-.67-2.07c-.31-.77-.73-1.85-1.14-3.24-.21-.69-.45-1.45-.7-2.28s-.45-1.75-.7-2.72A79.39,79.39,0,0,1,309.88,23.79Z"/><path d="M480,238.08l-33.79-33.5c-7.09-6.24-16.15-14.66-34.77-33,18.1,18-16.29-14.91,3.45,5.21l-4.58-3.65c11.94,10.85,21,20,19.37,18.18,3.64,3.53,2,1.9-4.63-5L422,183.05c12.41,12.46,28.63,28.67,31.29,30.92-14.56-14.41-21.52-21.62-25-25.49l17.14,16.67L437,196.68C449.92,209.07,485.27,244.46,480,238.08Z"/><path d="M352.32,450.26,339.8,466.12a44.08,44.08,0,0,1,3.42-3Z"/><path d="M337.1,472.34l7.77-10.7c-.6.54-1.14,1-1.65,1.44C337.8,470.79,334.75,475.33,337.1,472.34Z"/><path d="M327.23,482l-2,2.48C325.19,484.8,325.58,484.36,327.23,482Z"/><path d="M383.19,449.7l-9,12.29,11.15-14.14C388.76,442.82,389.11,442,383.19,449.7Z"/><path d="M504.26,267c2.36-2.06,4.8-4.05,7.2-6.07s4.94-3.9,7.41-5.86l-1.11,20.49L445.4,205.15c22.51,22.56,54.07,52.7,67.71,66.81l4.16,4.07,1.17-21.54c-3.33,2.64-6.13,4.78-8.25,6.61s-3.72,3.21-4.82,4.22C503.19,267.35,503,267.81,504.26,267Z"/><path d="M349.31,493.53c9.54-11.91,16.3-20.36,21.19-26.48l3.67-5.06Z"/><path d="M511.89,293.21l-.38.35.17-.16Z"/><path d="M344.87,461.64l17.51-24.12,10.45-13.22c.26-.13,2.63-3.09,5.76-7.07,19.44-26.54,15.6-20.82,12.48-15.9,3.91-4.91,6.37-7.85,4.48-4.88-4,5.11-7.22,9.11-10.1,12.69-6.37,8.55-11.8,15.87-18,24.38.37-.32.42-.23-.41,1C353.33,453,348.16,458.65,344.87,461.64Zm21.83-27.41,1.8-2.41a9.33,9.33,0,0,1,.8-1c5.87-8.2,5.17-7.58,5.95-8.95l-2,2.62C363.07,438,365.1,435.85,366.7,434.23Z"/><path d="M379.23,414.32c-4.89,5.65-16.85,21.92-26.91,35.94l10.06-12.74Z"/><path d="M321.46,489.34l3.81-4.82C325.47,483.8,328.8,478.41,321.46,489.34Z"/><path d="M328.29,480.52,327.23,482l12.57-15.92C337.54,468.37,334.41,472.1,328.29,480.52Z"/><path d="M387.15,445.52l8.38-10.63a37.66,37.66,0,0,1-2.84,3.13C390,441.57,388.37,443.83,387.15,445.52Z"/><path d="M395.53,434.89c1.35-1.6,3.13-3.77,5.38-6.56l1.9-2.68Z"/><path d="M400.12,428l8.45-11.09-6.8,8.7C401.46,426.05,400.93,426.8,400.12,428Z"/><path d="M398.82,431.35l7-9.19-4.95,6.17Z"/><path d="M383,451.27c1.59-2.11,2.46-3.35,4.2-5.75l-1.83,2.33C384.63,448.83,383.84,450,383,451.27Z"/><path d="M297.35,525.14a42,42,0,0,0,2.86-6.26Z"/><path d="M452,364.29c-18.23,23.53-40,51.55-50.74,65.47,22.61-29.17-18,24.07,7.76-8.95-1.65.9,18.59-24,35.78-47.15C444.49,374.58,465.87,346.53,452,364.29Z"/><path d="M370.5,467.05c-7.53,10.44-15,20.73-22.75,31.54L329,525l-.31.43,14.42-18.1c-2.66,2.84,19.51-27.66,20.56-28.61L383,451.27C381,453.88,377.86,457.83,370.5,467.05Z"/><path d="M300.21,518.88l3.84-8.41A49.15,49.15,0,0,0,300.21,518.88Z"/><path d="M426.26,393c-.19.36-.1.33.15.07S426.5,392.79,426.26,393Z"/><path d="M499.6,301.24c1-1.07,2.11-2.15,3.19-3.19l5.12-5.11,4.78-4.67,2.21-2.1c.73-.71.11-.2-1,.73-2.15,1.87-6,5.56-4.81,4.28-2.61,2.34-5.31,5.05-8,7.64s-5.29,5.29-7.52,7.72c-5.24,5.15-7,6.77-11.72,11.79C471,330.94,460.7,344.1,450.48,357.41l-12.09,15.83-4.17,5.48c16.21-20.53,32.15-41.1,49.3-60.34l.14-.18c6.31-7.34,9.37-10.5,11.25-12.43S497.6,303.24,499.6,301.24Z"/><path d="M524.62,277l-3.57,3.1,4.32-3.38C526.55,275.66,526.48,275.56,524.62,277Z"/><path d="M519.57,281.38c-3.43,3.09-5.86,5.32-7.5,6.91s-2.55,2.49-2.94,2.89C516.5,284.33,522.35,279.58,519.57,281.38Z"/><path d="M519.57,281.38l1.48-1.28c-.81.64-1.66,1.29-2.54,2C519,281.78,519.3,281.56,519.57,281.38Z"/><path d="M499.6,301.24c-5.52,5.52-10.82,11.31-16.08,17.14-2.09,2.78-8.43,10.21-16.75,20.64s-18.69,23.8-29.47,37.82c-21.54,28-44.63,58.16-54.72,72.62,21-28.36,30.25-40.16,38.71-50.73l13.47-16.85c5.21-6.57,11.58-14.81,20.52-26.41-.68.32,5-7.55,14-18.87-4.88,6.33-5.26,7.09-3.14,4.68l12-14.09c5.24-6.13,11.13-12.84,15.64-17.75l5.35-5.87c1.22-1.37,1.78-2.06,1.4-1.82a108.27,108.27,0,0,0-7.66,8.1c-1.65,1.83-3.3,3.75-4.72,5.37s-2.65,2.95-3.38,3.69c1-1.51-1.85,1.13,7.19-9.11,2.41-2.39,11-11.73,19.24-19.72L506.93,294l-4.14,4Z"/><path d="M527.1,254.17l2.31,2.2a10.52,10.52,0,0,1-.75-1.05c-5.16-5.08-8.37-8-11.23-10.76L514,241.41Z"/><path d="M434.17,383.94l5.37-7.27q-3.23,4.14-6.54,8.43C433.81,384.14,434.31,383.6,434.17,383.94Z"/><path d="M525.05,278c-2.56,2.27-5.35,4.64-8.27,7.39,2.91-2.67,5.74-5,8.3-7.18s5-4,7.17-5.79l7.54-6.13-6.85-6.53-3.53-3.36.21.26,3.26,3.17,6.77,6.6-7.45,5.92C529.82,274.21,527.4,276.05,525.05,278Z"/><path d="M443.61,372.86s0,0,0,0l2.1-2.67c9.77-12.76,19.51-25.4,29.57-37.65-9.72,11.61-19.17,23.57-28.61,35.66l-28.38,36.31c-4.69,6.37-10.58,14.32-15.44,21.16l13.33-16.92Z"/><path d="M525.37,276.72c-1,1-3,2.84-5.57,5.13-1.27,1.16-2.63,2.49-4.1,3.86l-2.26,2.12-2.29,2.25c4.51-4.2,9.17-8.2,13.9-12.11,2.54-2.18,4.93-4.12,7-5.86l7.19-6.11-6.54-6-.83-.77c.18.2.37.41.77.83l6.78,7L532,272C530.47,273.05,528.23,274.65,525.37,276.72Z"/><path d="M340.49,476.34c1-1.28,1.63-2.18,1.81-2.51Z"/><path d="M377.35,426.71c-52.83,71.69.68,0,36.14-46.77a4.31,4.31,0,0,0,.62-.68l1.52-1.82,4.63-5.79c3.46-4.36,7.18-9.14,8.34-10.81l-21.4,27-23,29.36,7.18-9.49-4.89,6.15c-3.35,4.51-6.55,8.87-9.37,12.8-6.65,8.57-29.09,37-39.61,52.17l2.38-3C354.16,456.34,364.54,443.67,377.35,426.71Z"/><path d="M386.53,413.81l-76.19,96c-.07,0-.08,0,0-.22l2.19-3.07,11.06-13.91a10.89,10.89,0,0,0,1.09-1.36l-1.09,1.36-6.17,7.17c15.49-21.2,27.93-36.23,57.12-74.54,4.13-4.08-19.32,25.51-20.73,28.79,0,.71,49.84-67,14.38-18.88.75-.87,2.58-3.23,4.24-5.36a41.32,41.32,0,0,1,3.24-3.94c18.5-24.7,30.73-40.85,44-58,6.65-8.56,13.53-17.39,21.75-27.66s17.79-22,30.3-35.8c-4.3,4.65-7.29,7.94-9.22,10.1s-2.85,3.16-3,3.26,2.62-3.25,7-8.23,10.29-11.46,16-17.4c2.89-2.94,5.63-5.81,8.15-8.24l3.45-3.4,2.79-2.67c3.65-3.48,5.79-5.35,6.68-6.14s.54-.47-.61.57l-2.28,2.05-3.07,2.91L494,280.63l-3.76,3.75c-5,5-9.62,10.07-10.89,11.63-.64.78-.45.69.95-.69l8.36-8.27a65.59,65.59,0,0,1-5,5.37c-2.8,2.92-6.5,6.72-10.2,10.72-7.45,8-15.07,16.68-17.4,19.52-1,1.42.92-.7,3.12-3.2s4.8-5.36,5.11-5.49c9.59-10.85,14.14-15.61,19.07-20.88,2.53-2.57,5.1-5.33,8.74-8.8l2.9-2.79,3.38-3.12c1.21-1.1,2.48-2.3,3.9-3.53l4.58-4c-7.71,6-3.8,2.6,0-.73,1.9-1.67,3.85-3.23,4.22-3.68s-.79.25-4.93,3.34c2.33-2,4.88-4,7.37-6.08s5.14-3.91,7.62-5.78l-.82,14.92c-14.91-15.24-25.35-26.68-3.2-4.09-.73-.84-2.8-3-4.67-4.89a41,41,0,0,1-3.43-3.7c-14.45-14.26-22-21.49-25.67-24.74,0,.18,2.58,2.75,5.94,6.1L500,252.26c-7.93-7.32-31.35-30.44-34.42-32.83-24.28-24.3,13.17,12.63,8.94,8-25.78-25.84-16.7-15.68-42.38-41.57,12.15,11.29-18.92-19.64-42.24-43.5L417.37,168l9.31,9.48c-3.1-2.82-3.21-2.73,5,5.3l.3.29c.77.84,1.32,1.46,1.58,1.81,24.57,24.3,29.17,28.65,41.81,41.89,11.37,10.82,2.68,1.13-15.81-17.46,1.9,3-8.49-7.77-18.39-17.45,12.45,11.89,17,16,22.25,20.92l9.14,9c.28.55,10.61,10.61,20.28,19.89l29.59,29,.56-10.19c-18.6,14.08-35.24,30.4-50.64,47.52S442.73,343,428.6,360.84c.6-.88.52-.92-.68.4L407.2,387.79l-15.78,19.87c17.42-22.85,32.08-40.92,28.56-37.58C414.16,377.43,399.2,396.76,386.53,413.81Zm71-89.68c-1.3,1.22,1.18-2,4.68-6.16s8-9.39,10.62-12.34c-3.17,3.42-7.11,7.84-10.24,11.46s-5.49,6.4-5.67,6.45a437.46,437.46,0,0,1,32.59-35.28c-1.47,1.17-3.54,3.05-6,5.38s-5.21,5.16-8,8.24c-5.76,6.11-11.79,13.23-16.59,19.1s-8.29,10.54-9.07,11.77S451.06,331.79,457.55,324.13Zm-15.47,18.09c.1-.59-3.85,4.1-7.86,8.93C440,343.81,446.41,335.73,451,330s7.3-9,5.33-7.07c-10.53,12.73-16.58,20.36-22.61,27.81,1.68-1.62-2.92,4.68-4.59,7.16S428.63,359.07,442.08,342.22Z"/><path d="M340.49,476.34l-2.74,3.57C337,481.12,337.24,480.84,340.49,476.34Z"/><path d="M361.49,458.08c-6.33,8.91-12.8,18.2-17.21,24.76l-8.54,11.29c4.6-6.95,6.44-9.89,11.21-17-8.47,11.51-14.8,20.75-19.2,27.55l-3.1,4.1c.65-.74,1.2-1.35,1.65-1.84l1.45-2.26,8-10.56c-3.17,4.77-7.64,11.45-15.26,22.67.56-1.14,1.63-3,3.19-5.62-1.67,2-3.61,4.21-5.69,6.42l-8.52,11.27,0-.06.32-.52c3.37-5.48,5-11.71,7.82-16.1l6.22-9.69,98.87-123.36-26.43,34.93c-14.4,18.69-29.53,38.57-48.14,63.58,1.53-3.27,29.79-40.15,35.44-47.38C407.05,397.73,364.56,454.81,361.49,458.08Zm-39.73,54.53-1.52,2c1.24-1.36,2.77-3.09,4.4-5l.72-1.14C323.34,510.89,322.32,512,321.76,512.61Z"/><path d="M358,475.44a10.5,10.5,0,0,1-1.08,1.66c-.75,1.06-1.91,2.66-3.54,4.88l5-6.46,5.06-7Z"/><path d="M367.84,462.91c.09-.22-.57.53-1.75,1.95-.9,1.22-1.79,2.45-2.68,3.67Z"/><path d="M321.51,505.42l2.34-2.92.43-.67Z"/><path d="M358.35,475.52l-10.48,14.6c-5.73,8-11.31,16.11-17.06,24.32L434.22,378.72l-66.38,84.19C367.67,463.32,365,467,358.35,475.52Z"/><path d="M383.24,134.11l-3.93-3.85a42.84,42.84,0,0,1-4.34-3.92,13.56,13.56,0,0,0-1.51-1.82l-5.27-5.16c1.26,1.51,3.42,3.88,6.23,6.86l6.6,6.41C392.87,144.07,386.61,137.66,383.24,134.11Z"/><path d="M373.46,124.52l5.85,5.74c1.74,1.26,2.15,1,22,20.52-11.88-12.1-15.69-15.62-19.85-19.57s-8.68-8.29-21.91-22.24c8.09,8.25,9.71,9.56,7.6,7.1s-8-8.75-14.5-16.17c1.11,1.54-1.65-.79-6.48-6a135.15,135.15,0,0,1-17.68-23.7l-2.17-3,2.07,4c.76,1.34,1.51,2.72,2.32,4.08s1.86,2.65,3,4.13a36.78,36.78,0,0,1-2.28-3c2.29,3.82,4.84,7.61,7.46,11.17.53.38,1.26,1,3.82,4.08s7.06,8.43,15.6,17.77c0,0,0,0,0,0,3.31,3.32,6.64,6.59,10,9.85a10.27,10.27,0,0,1-1.16-1.58C370.49,121.35,372.38,123.34,373.46,124.52Z"/><path d="M301.37,521.84q2.1-2.61,4.19-5.33c10.61-13.77,23.5-26.12,28.42-33.58-1.34.8-22.49,26.71-23.64,26.84l-5.7,7.18Z"/><path d="M309.2,41.7l.5,1.19a72.76,72.76,0,0,1-2-12.68c.24.94.45,1.88.7,2.81-.1-2.05-.15-3.81-.14-5s.14-1.8.25-1.53l-.06,1.78,0,1.78c0,1.19,0,2.4.11,3.58l.87,2.91c.29,1,.65,1.9,1,2.85.27,1.77.66,3.39,1,4.9s.75,2.91,1.1,4.22c.73,1.37,1.57,2.64,2.31,3.91-.61-2.21-.52-2.23.53.91a58.33,58.33,0,0,1,3.45,6.3c2.18,4.44,4.12,7.88,5.58,10.42s2.42,4.24,2.82,5.12.25,1-.44.18a40.44,40.44,0,0,1-3.5-4.94c-1.53-2.53-3-5.33-4.54-8.31l-.05-.05a86.26,86.26,0,0,0,4.59,8.36A141.19,141.19,0,0,0,337.56,90c4.38,5.07,8.34,9.09,12.21,12.89l-1.31-1.55,3.37,3.56c6.63,6.39,13.31,12.41,22.59,21.36,4.09,4.36,9.55,10,15.52,16.11L363.5,117.59c3.3,3.85,8.09,9.27,25.65,26.88-23.94-23.75,27.52,28.84,33,34,17.28,17.38,1.19,2.6,24.53,25.72-6.67-5.87-31.79-32.27-33.09-34l-44.85-43.57c-14-13.6-27.86-26.81-39.18-42.44a191.4,191.4,0,0,1-10.84-17.9,111.54,111.54,0,0,1-8-19.48C310.18,45.12,309.72,43.4,309.2,41.7Zm40.41,62.51a213.69,213.69,0,0,1-21.77-25c.91,1.43,2,3,3.17,4.75-.63-.85-1.37-1.87-2.16-3s-1.6-2.4-2.43-3.71-1.72-2.49-2.56-3.76a150.38,150.38,0,0,0,14,20.46c-.23-.3,1.76,1.64,4.29,4S347.75,102.89,349.61,104.21Z"/><path d="M335.39,84.07c3,3.86,6.1,7.58,9.32,11.2-1.91-2.38-3.93-4.94-5.89-7.64C338.22,87.18,337.78,87.12,335.39,84.07Z"/><path d="M321.64,62.76A135.91,135.91,0,0,0,334.2,82.54,224,224,0,0,1,321.64,62.76Z"/><path d="M306,19.69v.12l0,.93a80.82,80.82,0,0,0,1.41,14.78,35.46,35.46,0,0,0,1.74,6.18,89.94,89.94,0,0,1-3.17-22Z"/><path d="M303.41,1.19l.38-1,0-.08c-.63,1.67-1.31,3.37-1.88,5.09C302.38,3.86,302.92,2.52,303.41,1.19Z"/><polygon points="303.86 0.03 303.83 0.09 303.82 0.13 303.87 0 303.86 0.03"/><polygon points="293.91 533.46 294 533.31 293.83 533.59 293.84 533.57 293.86 533.53 293.91 533.46"/><path d="M517.43,244.56c4,3.6,7.42,6.74,9.9,8.95a31.38,31.38,0,0,0,4,3.35l2.3,2.14,7.82,7.29-8.59,6.91a349.79,349.79,0,0,0-30.37,27.5c-8.31,8.46-15.31,16.16-21.91,23.81-13.21,15.3-24.86,30.25-41.06,52.16,8-10.24,15.47-19.88,23.17-29.41s15.59-19,24.41-28.75c14.25-16.31,29.44-31.6,46.2-44.74l9.28-7.29-8.45-8-47.46-44.93c3.42,3.44,7.85,7.79,16.92,16.6C510.27,237.62,513.53,240.85,517.43,244.56Z"/><path d="M494.88,310.3c2.7-2.94,5.5-5.76,8.27-8.61s5.62-5.62,8.53-8.29c3.54-3.32,6.71-5.93,9.16-7.91a145.83,145.83,0,0,1,13-11.09l10-7.72-9-8.78c-7.09-6.87-16.12-15.84-25.88-25.52-8.66-7.91-18.07-16.44-28.5-25.81-.55.21,0-.71.34-.55.86.41,9.95,8.8,18.74,17-9.6-9.49-19.53-19.25-28.82-28.14-26.19-26.57,13.53,12.77,33.16,32.2l4.19,3.93c-3.87-4-4.6-4.81-4.1-4.41l-5.48-5.14c-1.3-1.5,2.93,2.29,8.89,7.73-.3-.37-.76-.91-1.44-1.69-7.68-7.36-15.4-14.84-17.39-16.46-12.31-12.22,1,.74.33-.26l25.68,25c8.67,8,17.84,16.41,19.26,17.49.46.48,1,1.07,2.77,2.79L548,267.47l-12.61,8.94c-1.31.93-3.54,2.56-6.24,4.57-1.33,1-2.76,2.18-4.26,3.37-.74.6-1.5,1.22-2.27,1.83l-2.28,1.95c-1.6,1.51-3.09,2.85-4.42,4.15l-3.62,3.55c-2.22,2.14-3.94,4-5.44,5.53-3,3.06-4.84,5.15-6.76,7.15-3.71,4.15-7.62,8-19.14,21.77-7.54,8.87-14.89,18-22.2,27.27,10.7-14.13,20.34-26.18,30-37.36a395.13,395.13,0,0,1,30.62-31.69c-19.59,17.24-37.1,37.26-54,58.06q-6.87,8.82-15.05,19.58c2.69-4.19-5.58,6.07-7.53,9.22-7.79,10.22-5.2,6.18-14.64,18.66l.18-.3-22.45,28.44,10.28-13.43,16.73-21.23,6.7-8.73c2.62-3.57,4.11-5.72,4-5.91l2.06-2.69c8.21-10.44,16.63-21.31,25-31.61S487.22,318.57,494.88,310.3Zm18.56-73.62-.85-.87-.5-.45Z"/><path d="M315.63,49a1.89,1.89,0,0,0-.33-.22,94.38,94.38,0,0,0,6.34,14c-1.69-3.21-3.13-6.54-4.49-9.89Z"/><path d="M317.13,43.52c-.48-1.7-1-3.37-1.42-5.09-.11-1.45-.26-2.88-.38-4.28-.31-2.49-.41-4.86-.49-7.11l0-.51,0,.1v-2c0-.7,0-1.39.06-2.08.12.46.22.92.37,1.37l0-.54.05.65.05.15v.43c.12,1.29.15,2.59.34,3.88l.6,1.25a90.18,90.18,0,0,0,3.87,16.09c.33,1.06.75,2.11,1.19,3.19s.88,2.17,1.41,3.26a93.34,93.34,0,0,1-4.21-18l.53-3.1c.21-1,.46-2,.69-3-.09-1-.08-2-.08-3v-2.1A82.25,82.25,0,0,0,321,34.46a95.41,95.41,0,0,0,2.95,11.15c-.09-.69-1-3.4-2-7.72a85.24,85.24,0,0,1-1.8-11.42L320,24.11a85.88,85.88,0,0,0,8.35,30.59,127.84,127.84,0,0,0,16.55,25.63,264.48,264.48,0,0,0,18.92,20.6c6.2,6.14,12.05,11.68,17.17,16.56,13,12.93,6.87,7-1.62-1.27l-12.36-12c-3.28-3.2-5.06-4.91-3.35-3,7.34,7.44,12.93,12.79,17.2,16.92s7.34,7,9.93,9.41c5.2,4.81,8.57,7.77,16.33,15.19-.88-.93-1.79-1.9-2.78-3-1.54-1.49-3.35-3.22-5.73-5.46-10.14-9.94-4.56-4.59,4,3.6-2.43-2.56-5.45-5.68-9.69-10,2.31,2.65,1.24,1.94-3-2.21-2.12-2.07-5-5-8.72-8.81s-8.18-8.48-13.28-14c-3.54-3.27,11.18,12.9-.68.21C363.55,99,360.09,95,357,91l-.76-.94c-1.53-1.47-3.11-3-4.84-4.76,1.55,1.56,3.14,3.1,4.74,4.62l-1-1.25c-.5-.48-1.11-1-1.82-1.75l-1.47-1.46-.2-.2-.1-.1,0,0,0,0h0l.22-.36L353,86.05l.57.59L353,86l-1.33-1.31.56.54.75.74-.58-.76,1.7,1.87.67.64-.63-.6c3.07,3.31,6.26,6.57,9.52,9.79,4.27,3.83,8.65,7.6,13.07,11.4l-1.45-1.35a11.85,11.85,0,0,1,2.6,1.95l-2.41-2.34c1.6,1.23,5.44,4.64,12,10.74l-6.78-6.92c-5.54-5.18-11.71-10.89-16-15.15s-6.86-7-5.59-6.1l13.25,12.1c-3.23-3.62-3-3.49-2.9-3.52s.08-.21-3.42-4.48c-4-4.71-5.48-6.4-6.19-7.07s-.6-.3-1.26-.93l-1-1.31-.06-.08,1.19-.07.11.14.21.27,1.72,2.22c4.58,5.91,9.91,12,15.9,18.5l1.55,1.66c38.9,35.63,100.23,96.31,66.74,64.8l17.54,17.6c3.4,3.33,6.09,5.9,7.07,6.71l1,1L472,198l-.76-.64c6.25,6.3,4.79,5.17,6.44,7,7.26,7.19,8.16,7.9,8.73,8.28,8.94,9.18,5,5.43-3.43-2.84l3.68,3.72-33.62-31.82a46.13,46.13,0,0,1,4.05,4.31l8,7.79c.36.21,1.35,1.08,8.16,7.95L495.12,223l-.77-.79,2.47,2.44L514,241.41l-5.9-5.39c1.51,1.51,3.08,3.1,4.69,4.73,4.74,4.39,9.31,8.68,14.32,13.42l2.52,2.46c.53.65,1.25,1.5,2.24,2.59l-8-7.22,8.32,8.51,6,6.19-6.64,4.84c-6.54,4.76-11.51,8.7-13.39,10l-5.66,4.88c-1.41,1.25-2.36,2.17-3,2.79-1.28,1.25-1.28,1.39-.83,1.14.89-.49,3.55-2.52,1.27-.26-3.18,2.32-10.52,9.08-19.08,18-1.54,1.67-3.05,3.37-4.55,5.09s-3,3.4-4.49,5.15c-2.71,2.93-6.39,7-12.1,13.84-4.31,5.52-11.31,14.69-19.29,25.24l-12.09,15.83c-6.52,8.46-13.22,16.95-19.39,24.44.1-.25,3.42-4.6,8-10.51l15.37-19.9c10.07-13,17.2-22.1,5.43-7.32-28,36.17-57.87,74.09-77.62,99.35l5.69-7.77c-8.23,10.75-7.32,9.21-1,.39-5.57,7.31-13.49,18.27-14.39,19.79l3.37-4.32,3.52-4.52,2.8-3.57-4.06,5.56-3,3.66c-1.64,2.13-2.46,3.15-2.67,3.33l-.29.37-3.89,5.22a15.86,15.86,0,0,1,1.71-2l-3.89,4.95c-6.49,8.84-13.58,18.9-19.4,27.92l12.07-18.6-3.14,4.14c-1.3,1.7-2.66,3.48-4.05,5.28-3.51,5-7.59,11-11,16.46-3,3.92,1.43-3.06,5.5-9.38-3.36,4.26-6.81,8.52-10.15,12.45L335.49,504c1.06-1.65,2-3.15,2.73-4.24s1.14-1.8,1.15-1.86c13.49-18.94-9.21,13.68,13.77-18.07,10.19-13.8-3,3.55-.6-.26.64-.83,1.21-1.58,1.74-2.29-7.82,10-15.75,20.5-23.81,30.19l-1.22,1.46-12.17,15.9c1.33-2.23,2.49-4.2,3.48-5.87-1.53,1.69-3.05,3.33-4.55,4.88l-.06-.52,0,0,.29-.32.58-.63c1.52-1.7,3-3.22,4.49-5l.54-.63,0-.06c8.76-11.27,12.19-15.18,20.28-25.16l12.5-16.28c1.59-2.92-5.71,5.38-17.91,22.3,21.52-30.35,14-19.63,27.89-37.64-.52.24,2.41-3.9,5.71-8.56l-1.22,1.56c-17,22.67-25.68,33.81-28.88,37.48-4.31,5.4-7.45,9.16-6.05,7l4.78-6.2c.63-1.24,2.55-4.22,5.26-8.25l52-68.77c15.85-20.54,30.8-39.68,48.57-62.52,7-8.67,14.09-17.3,21.36-25.76-2,2.12-4.77,5.26-9.48,11,2.6-3.41,7.58-9.58,11.16-13.94-8.48,10.2-16,19.75-23,28.74l-22.14,27.59C435.45,362.37,448,345.47,461.18,329c-6.3,8.11,1.44-1.5,10.39-11.78s19.37-21,16.11-17c-2.56,2.79-5.05,5.49-7.42,8.22,2.4-2.52,3.95-4,7.26-7.26s8.38-8.46,18.5-17.72c-4,4-7.29,7.21-10.87,10.63-1.6,1.75-3.88,4.17-6.17,6.7,2.08-2.15,4.21-4.23,6.3-6.35l6.44-6.2,6-5.75,6.65-6c-3.74,3.4-6.47,5.86-8.38,7.79C513,278,520.14,272,527.6,266.35l.68-.51-.62-.61-5.39-5.33c-7-6.62-.94-.36,5,5.77l.11.11-.12.09-3.84,2.81,3.73-2.95v.07c-22.64-21.91-49.26-47.4-83.49-81,.64.78,3,3.2-3.64-2.6l-26.17-25.29c1.57,1.24,16.07,15.25,26.43,24.95L415.6,157.76l12.76,12.07-16.7-16.52c9.18,8.73,3.23,2.12,25.86,24.5-.87-.73-3-2.77-5-4.61a43.89,43.89,0,0,0-3.79-3.39c17.9,17.53,20.37,19.36,29.81,28.57l4.22,4c-7.78-7.74-9.78-10.08-7.69-8.55L474,212.14l-94.45-93.46,15.67,14.77c-9.59-9.47-18.24-18.11-23.38-23.76-11.46-11.07-15.74-15.36-17.17-16.31-1-1-1.83-2-2.69-2.91,1.39,1.57,2.81,3.11,4.25,4.65l1.09,1.08c2.29,2.27,4,4,5.26,5.24a18.42,18.42,0,0,1,2.29,2.65c4.83,4.88,9.77,9.73,14.68,14.59-6.73-6.35-13.5-12.64-20-19.08l-3-2.91c1.09,1.09,3.21,3.41,7,7.51,3.19,4.17,11.19,12.56,20.87,22.42s21.08,21.16,31.21,31.14l-36.47-34.48c-1.75-1.88,7.92,7.38-2.11-2.58-5.22-4.74-7.19-6.43-11.12-10.23-2-1.91-4.43-4.33-8-8s-8.2-8.53-14.12-15.66a36.45,36.45,0,0,1-4.39-3.94,135.16,135.16,0,0,1-9.89-14.8l-.17.09a103,103,0,0,1-13.29-32.85l-.5-2.79c.08.87.16,1.74.23,2.56.14,1.48.38,2.87.57,4.27S316.87,42.12,317.13,43.52ZM514.76,251.07l8.65,8.25c-.93-1-.88-1.1-.26-.57ZM516,278.53c-.06,0,0,0,.11-.23l1.44-1.22a11.89,11.89,0,0,0-1.1.69c-5.72,5.36-7.83,7.5-7.53,7.29Zm-46.1,49.76L468,330.67c.24-.25.59-.63,1-1.09A11.68,11.68,0,0,0,469.94,328.29Zm16.64-104,10,9.54c-1.9-1.88-2.14-2.19,5.28,4.36ZM382.32,439.5c3.11-3.79,8.61-10.8,15-19,10.35-13.72,13.75-17.89,34-44.22l.23.15c3.76-4.77,6.33-7.94,7-8.52,3.47-4.73,6.75-9.15,11.24-14.93,0-.32-2.52,2.66-4.64,4.94,6.83-8.43,12.62-15.64,18.15-22.35,1.66-2.13,3.94-4.85,6.29-7.68s4.86-5.69,7-8.06l3.15-3.58c3.2-3.85,6.95-8.2,12.35-14.18s12.58-13.49,23.11-23.13c-5.27,4.56-10.71,9.41-17.9,16.43-21.35,22-40.1,46.36-58.79,70.8ZM520.44,251.42c-2.23-2.36-3.71-3.95-4.77-5.11l-3.35-3.05c-.26-1.1-19.51-19-34.27-33-2.83-2,11.52,11.21,17.08,16.62l-16.32-15.07,4,4.17Zm-41.93-41.94L492.27,222l-4.34-4.36C482,212.27,478.09,208.79,478.51,209.48Zm-47.14-42.42,6,6.13L474,207.69l-3.77-3.94c-5.85-5.53-9.71-9.19-18.63-17.24.87.3-1.57-2.34-8.13-8.8,16,14.62,29.21,27.55,43.58,40-12.38-11.5-14.48-13.85-25.83-24.5,10.19,10.36-13.62-12.29-22.9-20.88,2,2.09,3.28,3.52,2,2.49l-.2-.2c-.88-.66-2.89-2.32,3,3.61Zm40.79,44.19,7,6.66c-.09,0,.15.3.57.77.08,0,.09-.07.11-.13l-.68-.64a3.4,3.4,0,0,1,.81.58,1.24,1.24,0,0,1,.37.2C473.49,212,472.57,211.38,472.16,211.25Zm-.87-.21c2.46,2.37,4.18,4,5.42,5.14l-8.82-8.56Zm2.61,106c3.39-3.83,6.86-7.59,10.35-11.32,1.24-1.47,2.55-3.05,3.95-4.82-2.43,2.45-5.16,5.2-8.3,8.57C472.41,318.09,472.3,318.59,473.9,317Zm-127,172.53.27-.42c1.36-2.24-1.28,1.17-5.31,6.82Zm41-54.25c1.12-1.53,2.27-3.07,3.41-4.6,2.66-3.65,5.88-8,9.92-13.32l2.1-2.81c-.74.67-9.75,12.5-13.85,17.79C376.07,450.57,390.46,431.37,387.84,435.29ZM521.32,249.73c-9.84-8.66-6.64-4.88,8.48,9.44-3.67-3.42-6.09-5.63-8.21-7.53l9.69,9.83,4.87,4.95-5.36,4.07-2.64,2-3.56,2.89-3.48,3c-1.16,1-2.33,2-3.47,3l-3.39,3.1c2.58-2,6.74-5.35,13.11-9.95,2-1.49,3.8-2.84,4.19-3.08l7.17-4.31-6.58-6.59Zm-21.55-21.34-7.41-6.77c.92,1,2,2.07,3.16,3.29l8.15,7.44Zm-62.18-61.32-.57-.6-49.41-48.11-9.65-9c10,9.36,17.55,16.87,14.19,14.19-7.61-7.18-15.33-14.44-17.07-16.28l-10.72-9.74c5.89,5.8,12,11.54,18.15,17.35l18.36,17.38Zm-42.21-37.5-2-1.95ZM349.9,89.67c-1.66-1.8-3.28-3.63-4.88-5.46h0l0,0,0,0,.05.06.18.24.39.5.78,1c.54.7,1.08,1.4,1.64,2.09,4.45,5.69,10,11.94,14.28,16.37-2-2.16-8.42-10.13-6.45-8.38l-.15-.15c-1.43-1.41-2.87-2.81-4.27-4.25l-1.07-1.08-.53-.55-.06-.07,0,0v0ZM315.33,27.76l.08.17c-.07-.62-.05-1.25-.08-1.87C315.33,26.62,315.3,27.19,315.33,27.76Z"/><path d="M494.88,310.3c1.7-1.85,3.37-3.64,5-5.33s3.21-3.35,4.78-4.86c-6.33,6.27-12.14,12.38-17.56,18.4-2,2.29-4,4.63-6,6.95l-5.89,7.06C481.63,324.92,488.15,317.48,494.88,310.3Z"/><path d="M317.41,44.77c-.35-1-.59-2-.89-3s-.57-2-.78-3c.23,2.87.48,5.82.9,8.68,1,2.23,2.5,5.38,4.15,8.57A93,93,0,0,1,317.41,44.77Z"/><path d="M315.31,48l.32,1,.1.08a97.88,97.88,0,0,1-3.64-13.64c.1,1,.28,2,.45,2.91s.34,1.92.57,2.85c.47,1.86.91,3.72,1.52,5.51C315,47.7,315.27,48.15,315.31,48Z"/><path d="M319.55,58c-.44-1-.82-2.06-1.21-3.19a23.48,23.48,0,0,1-.79-2.62c-.32-.73-.63-1.44-.93-2.11a5.53,5.53,0,0,0-.89-1l1.42,3.83C318,54.76,318.73,56.46,319.55,58Z"/><path d="M316.64,47.49c-1.55-3.51-2.3-4.6-.93.36.26.7.58,1.44.91,2.19.22.3.45.66.71,1.1C317.08,50,316.79,48.75,316.64,47.49Z"/><path d="M341,84.93c-.53-.68-1.08-1.35-1.6-2.05l-.58-.59C339.55,83.19,340.29,84.06,341,84.93Z"/><path d="M321.16,58.76l-2.24-4.61c-.64-1.25-1.15-2.24-1.59-3l.22,1c.56,1.26,1.24,2.54,1.9,3.88s1.47,2.67,2.23,4A9,9,0,0,1,321.16,58.76Z"/><path d="M324.27,64.27c-.89-1.39-1.75-2.8-2.59-4.19.72,1.54,2.07,4.28,3.76,7.21A15.13,15.13,0,0,0,324.27,64.27Z"/><path d="M325.37,67.62c-1-1.64-2.08-3.12-3-4.7l-1.43-2.38L319.55,58C322.09,64.05,324.94,67.79,325.37,67.62Z"/><path d="M325.37,67.62c.77,1.13,1.58,2.33,2.45,3.63-.79-1.32-1.63-2.64-2.38-4C325.47,67.49,325.44,67.59,325.37,67.62Z"/><path d="M466.61,316.41c-1.77,2.14-6.55,7.89-12.05,14.82s-11.78,15-16.83,21.59c-10.09,13.17-15.58,20.34-.54.7-4.92,5.88-16.84,21.17-15,18.17-6.55,8.81-10.51,14.36-13.77,19-8.4,10.92-6.34,7.66-7.67,9-6.26,8.39-12.59,16.85-14.29,18.69C377.89,430,372.26,437.86,373,437.52l-5,6.76c6.65-8.34,13.28-16.48,20.56-25.27,6.63-8.87,10.42-14.59,14.24-19,17.37-22.56-4.82,4.71,21.13-28.65-5.46,7.44-7.38,10.42-6.52,9.9,12.41-16.44,22.86-30.23,32.26-42.22s17.66-22.16,25.44-31.43c-2.75,3-5.07,5.52-6.63,7.15S466.14,317.14,466.61,316.41Z"/><path d="M417,167.11l5.21,5.17-4.54-4.63A3,3,0,0,1,417,167.11Z"/><path d="M463.23,326.39,461.18,329l2.42-3Z"/><path d="M422.18,172.28l.25.25.65.64Z"/><path d="M331.36,76.46l-.69-1.14-2.85-4.07C329.09,73.18,330.29,75,331.36,76.46Z"/><polygon points="289.54 535.39 290.39 534.37 290.5 534.18 289.54 535.39"/><path d="M299.66,524l-2.12,3.49.35-.41,3.48-5.23c-.55.69-1.09,1.35-1.64,2Z"/><path d="M306.93,513.52l-3.5,4.4-.41.56-1.37,2.24,3-3.77Z"/><path d="M296,529.22l1.06-1,.44-.72Z"/><polygon points="296.75 528.78 297.19 528.11 297.1 528.2 296.75 528.78"/><path d="M426.58,176.6l-3.5-3.43,2.79,2.77Z"/><polygon points="291.82 531.92 290.61 533.99 290.5 534.18 290.5 534.18 291.82 531.92"/><path d="M290.5,534.18l-.1.19,1.74-2.09c3.81-4.46,7.64-9.46,10.88-13.8l.09-.16Z"/><polygon points="290.32 534.49 290.4 534.37 290.39 534.37 290.32 534.49"/><path d="M289.66,535.81l.11-.12.42-.5c2.93-3.34,6.2-7.22,9.54-11.33l1.92-3.14Z"/><path d="M323.22,60.45l1.13,1.9c-1-2.21-2-4.51-2.86-6.84L321,54.36c.27.89.6,1.85,1,2.86S322.74,59.33,323.22,60.45Z"/><path d="M320.36,52.32c-.61-1.44-1.15-2.91-1.73-4.36s-1-3-1.5-4.44c.07.42.18.83.28,1.25.53,1.56,1,3.16,1.64,4.75.31.79.61,1.6.92,2.41l1,2.43C320.77,53.62,320.56,52.94,320.36,52.32Z"/><path d="M440.73,190.69l-14.86-14.75-1.36-1.27c2.79,2.87,5.05,5.22,6.66,6.94C434.51,184.74,438.38,188.41,440.73,190.69Z"/><path d="M320.46,52.55c.35,1,.69,2,1,3a115.62,115.62,0,0,0,6.94,13.14c-.72-1-2.31-3.38-4.08-6.3,1.27,2.75,2.67,5.37,4.1,7.88a119.12,119.12,0,0,0,10.39,12.06A125.42,125.42,0,0,1,320.46,52.55Z"/><path d="M320.79,56.06c.77,2,1.57,4,2.65,6.35.32.7.57,1.32.83,1.86l2,3-1.65-3.5-1.41-3.3C322.39,59.05,321.61,57.53,320.79,56.06Z"/><path d="M308.44,511.07c6.8-11.54,3.28-6.3-3.38,4.07-.62,1-1.28,2.1-1.95,3.18l.32-.4Z"/><path d="M306.93,513.52l5.59-7,4.89-6.74c-2.64,3.09-5.49,6.56-7.68,9.55-.36.51-.8,1.11-1.29,1.78l-1,1.63Z"/><path d="M417,167.11l-26.83-26.68c-10.37-10.08-9.49-9.05-6.9-6.32l21.23,20.82-3.77-3.83C402.67,152.85,414.08,164.48,417,167.11Z"/><path d="M422.43,172.53l-18-17.6,12.9,13,7.14,6.69Z"/><path d="M320.36,52.32l.1.23-.29-.88Z"/><path d="M434.2,185.14l-.41-.4h0Z"/><path d="M297.41,527.9c2.4-3,2.95-3.71.48-.83l-.7,1Z"/><path d="M463.46,212.76c4.48,4.12,9.55,8.77,20.53,19.08-.57-.15,3.75,4.24,8.2,8.76-8.65-8.33-10.18-10-17.09-16.75a16.86,16.86,0,0,0-2.5-2.13l20.28,19.89c9.12,8.75,17.63,16.8,16.5,15.47-11.17-10.7-10.48-10.84.43-.47,1.39,1.59,6.42,6.55,13.36,13.28l.47-8.66a307.16,307.16,0,0,0-25.2,21.83c-8.52,8.18-16.41,16.68-22.25,23.2L475,307.64c4.52-4.84,10.14-10.78,15.06-15.55s9-8.53,10.07-9.3c.87-1.22,5.42-6.34,18-16.59,1.93-1.34,3.85-2.72,6-4.32l-.41,7.42c-5.84-6.07-14-14.1-30.73-30.56L426.58,176.6Z"/><path d="M431.17,181.61l-4.49-4.15c2.34,2.41,4.14,4.28,5.34,5.59l1.77,1.69C434,184.78,433.07,183.65,431.17,181.61Z"/><path d="M434.2,185.14l7,6.7C438.78,189.47,436.38,187.16,434.2,185.14Z"/><path d="M385.13,129.28c-3.78-3.73-5.44-5.41-6-6-5.91-5.61-11.86-11.17-17.71-16.84C371,115.85,380.48,125,385.13,129.28Z"/><path d="M494.94,237.68c10.85,10.3,17.69,16.6,17.57,16-19.65-18.54-43.87-41.9-60.11-57.44,2.9,2.47-.39-2.21-8-8.72,1,1.75-13.55-12.3-26.09-24.38,10.92,10.19,7.52,5.5-7.79-8.85,23.7,24.14-36.76-36.2-9-7.93l-27.22-26.66c-9-8.81-17.46-17.18-23.7-24-3.31-3.47-6.52-7-9.61-10.7a297.38,297.38,0,0,0,22.51,24.86c7,7.06,12.62,12.58,14.86,14.89-8.64-10,70.51,71.43,75.44,74.4-22.45-22.83,22.3,22.12,7.84,8.68l31.34,31,31.65,29.61.29-5.42a328.78,328.78,0,0,0-32.48,29.9c-10.13,10.63-19.7,21.74-28.87,33.13,7-8.07,16.31-18.95,27.06-30.07,5.33-5.61,11.1-11.2,17-16.64s12.06-10.55,18.08-15.31l-.19,3.49C513.42,255.83,502.61,245.39,494.94,237.68Z"/><path d="M343.29,87.18c1.91,2.33,4.4,5.21,7.34,8.45,3.52,3.68,7.13,7.27,10.79,10.81C354.66,99.78,348.08,92.78,343.29,87.18Z"/><path d="M328.35,495.28c-.54,1-2,3.31-4.07,6.55,10.57-13.7,23.84-31.11,43.63-57.55C356.11,459.06,344.21,474.48,328.35,495.28Z"/><path d="M533.69,253.28l0,0C531.79,251.28,532.05,251.56,533.69,253.28Z"/><polygon points="353.27 84.03 353.27 84.04 353.26 84.02 353.27 84.03"/><polygon points="353.36 84.15 353.31 84.08 353.28 84.05 353.27 84.04 354.97 86.22 354.1 85.09 353.67 84.55 353.46 84.28 353.36 84.15"/><polygon points="353.03 84.06 353.11 84.16 353.01 84.03 353.03 84.06"/><polygon points="354.17 85.52 353.4 84.53 353.11 84.16 354.17 85.52"/><path d="M331.9,506.88c-2.12,3.19-4.49,6.45-6.39,9.55Z"/><path d="M325.75,522.68l-.43.72-1.45,1.85L325,524l-.08.14L325,524c2.11-2.43,4.21-4.9,6.23-7.38,14.54-18.1,27.62-35.51,37.92-49.24l-43.79,56Z"/><path d="M327.78,518.11,335,506.88C332.4,510.91,329.81,514.74,327.78,518.11Z"/><path d="M319.92,23.36l.06.75-.05-.75S319.93,23.37,319.92,23.36Z"/><path d="M320.13,22.05q0-.74.06-1.8v-.48h-.3V23c0,.11,0,.22,0,.33S320.07,23,320.13,22.05Z"/><path d="M304.59,34c-.18-2-.28-3.92-.36-5.78s-.07-3.66,0-5.36c-.19-1.43-.41-1.46-.65.65-.12,1.06-.13,2.63-.14,4.84a81.36,81.36,0,0,0,.64,8.48,87.2,87.2,0,0,0,2.64,10.25,117.55,117.55,0,0,0,5.52,13.7,132.17,132.17,0,0,0,7.38,13.31c1.22,2,2.48,3.85,3.57,5.55l3,4.46c-.23-.42-.41-.74-.53-1q-1.15-1.77-2.36-3.7a118.7,118.7,0,0,1-14.11-27.77A62.07,62.07,0,0,1,304.59,34Z"/><path d="M334.63,94.72a139.47,139.47,0,0,1-9-12l-.14-.2a4.83,4.83,0,0,0,.25.63,119.07,119.07,0,0,0,10,13c3.21,3.62,6.34,6.84,9.81,10.32C339.93,100.27,334.66,94,331,89.27s-5.78-7.68-5.58-6.8l.14.21C328.73,87.14,331.85,91.15,334.63,94.72Z"/><path d="M368.34,129.56c-9.92-10.53-16.87-17.21-22.79-23.15,4.45,4.86,9.08,9.64,13.12,13.71S366.13,127.53,368.34,129.56Z"/><path d="M313.48,61a163.78,163.78,0,0,1-5.43-16.29,118.59,118.59,0,0,1-3.37-18.28,81.69,81.69,0,0,0,4.55,25.25c.91,2.08,1.72,4,2.5,5.53S313.07,60,313.48,61Z"/><path d="M305,15.13v0l-.09.7-.19,1.53c-.22,1.6-.32,3.48-.42,5.49.09.78.23,2,.41,3.5l0-1.28c0-3.23,1.09-6.34,1.44-9.27l0-.27v-.1L305,15.1h0Z"/><path d="M325.45,82.47C323.85,80,322,77.18,320,73.53c1.11,2.14,2.26,4,3.35,5.88l2.11,3.07Z"/><path d="M348.33,83.67A131.78,131.78,0,0,1,334.8,65a95.68,95.68,0,0,1-7-14.46,105.55,105.55,0,0,1-4-12.78,94,94,0,0,1-2.35-14.42,74.66,74.66,0,0,0,1.77,13.49A90.49,90.49,0,0,0,326,47.05a97.41,97.41,0,0,0,8.37,18.32c.09,0,.76,1.07,1.86,2.66s2.55,3.72,4.14,5.88A117.16,117.16,0,0,0,348.33,83.67Z"/><path d="M310.18,35.54a21.64,21.64,0,0,0,.47,4C310.48,38.18,310.27,36.88,310.18,35.54Z"/><path d="M309.82,23.84c0,1.93-.13,3.9,0,5.85l.12,2.93.26,2.92c-.08-1.38-.22-3-.24-5,0-1-.1-2-.09-3.14S309.84,25.09,309.82,23.84Z"/><path d="M316.61,27.35l-.25-4-.48.49a77.62,77.62,0,0,0,1.44,11.23C317.61,35,317.08,32.14,316.61,27.35Z"/><path d="M489.42,245.63c16.91,16.4,23.57,23.22,29.36,28.83l1-18.24c-1.77,1.39-3.42,2.72-5.17,4.16l5.33-4-1,17.86c-21.86-22.46-70.7-70.46-80.34-78.71l16.86,16.75c5.16,5.11,10,9.9,8.62,8.26l-10.76-10.75c-3.36-3.36-5.91-6-5.93-6.12,31.31,31.42,24.46,23.53,51,49.87a41.89,41.89,0,0,0,3.43,3.71c1.87,1.92,3.95,4,4.69,4.9C494.68,250.5,474.15,230.31,489.42,245.63Z"/><path d="M416.73,367.73c5.38-7,13.15-17,21.87-27.81s18.42-22.56,27.63-32.81c18.28-20.64,34.84-34.9,29.83-30.59-8.11,7.38-17.1,16.41-24.74,24.64s-14.06,15.59-17.42,19.45c12.16-14.5,20.7-23.77,28.09-31.53s13.72-14,22.5-21.75c4.59-3.66-2.32,2.42-6.71,6.6-2.18,2.09-3.79,3.66-3.17,3.17S498,274,505,268a47,47,0,0,1,4.91-4.43c2.82-2.47,6.58-5.34,9.6-7.79l-1,19c-4-3.83-6.76-6.4-4.33-3.65,1.89,1.85,3.59,3.53,4,4l1.07-19.69c-3.7,2.9-6.79,5.19-9.41,7.39s-5,4-7.26,6l-3.51,3-3.7,3.35c-2.64,2.35-5.51,5.12-9,8.53,4.93-4.14-7,6.8-19.58,20.67S440.63,334.79,438.21,339c8.46-10.53,12-14.49,15.54-18.49C439.26,337.33,428.33,352.45,416.73,367.73Z"/><path d="M309.91,514.45c3.66-4.28,7.24-8.63,10.34-13,3.23-3.8-10.09,14.78.65.18a23,23,0,0,1,1.7-2.36c1.09-1.4,2.61-3.34,4.31-5.54l10.84-13.81c1.2-1.89,4.92-7.36,3.9-6.26l-1.72,2.15c-1.69,2.34-3.43,4.75-5.27,7.28.81-1.26,1.79-2.71,2.89-4.3l-27,33.8c-.54.27,7.51-12.75-.43-.37,0,.15,0,.43,0,.94l-13.3,16.66c3.79-4.69,8.08-9.51,12.31-14.43-1.52,2.88-2.64,5.66-3.73,8.18.37-.54.67-1,.89-1.27A28,28,0,0,0,309.91,514.45Z"/><path d="M303.08,528.28a39.88,39.88,0,0,0,2.31-4.72c-.87,1.3-2.1,3.24-3.57,5.57l-1.63,2.61L299.4,533l-6.9,8.61,0,0,.19-.22.77-.86,1.45-1.66c1.88-2.12,3.49-3.93,4.67-5.2l.29-.37.26-.07.05-.1.11-.18.49-.83,20.71-26.68-18.77,23.42Z"/><path d="M300.1,24.55A85.61,85.61,0,0,0,301.35,35c.46,2.22.71,3.43.93,4a94.12,94.12,0,0,1-1.79-13.18C300.46,26.42,300.34,26.08,300.1,24.55Z"/><path d="M300.83,11.12a81,81,0,0,0-.34,14.75c0-.31,0-.91,0-1.75s0-1.95,0-3.24,0-2.78.07-4.42S300.66,13,300.83,11.12Z"/><path d="M317.58,76.58l-1.83-3.09-1.49-2.75c-.93-1.67-1.55-3.1-2.06-4.14-1-2.09-1.15-2.83-.59-1.85A125.75,125.75,0,0,1,305,47.45c-.54-1.92-.95-3.37-1.25-4.46s-.46-1.84-.6-2.34c-.56-2-.3,0-.82-1.6A113.58,113.58,0,0,0,306,52.32a124.5,124.5,0,0,0,5.23,12.54,10.23,10.23,0,0,0,.67,1.57c.46.95,1.08,2.25,1.78,3.6s1.51,2.74,2.21,3.93S317.2,76.08,317.58,76.58Z"/></g></g></svg>